<svg width="97" height="26" xmlns="http://www.w3.org/2000/svg"><g fill="none" fill-rule="evenodd"><path d="M4.008 9.887h7.095c.74 0 1.171.27 1.171 1.032 0 .738-.43 1.01-1.171 1.01H4.008V9.887zm0 4.764h7.185c.866 0 1.446.202 1.446 1.085 0 .76-.58.965-1.446.965H4.008v-2.05zM0 19.85h12.764c2.293 0 3.99-.597 3.99-3.48 0-1.975-.65-2.914-2.403-3.137v-.05c1.124-.331 1.932-.764 1.932-3.008 0-2.577-1.552-3.446-4.746-3.446H0v13.12zm19.329 0h4.007v-3.405h6.305c1.242 0 1.642.452 1.642 1.829v1.576h4.009V17.62c0-2.16-.997-2.682-2.185-2.9v-.032c1.84-.436 2.239-1.472 2.239-3.227v-.836c0-2.355-.834-3.897-3.92-3.897H19.33v13.12zm4.007-9.86h6.266c1.266 0 1.84.22 1.84 1.378v.435c0 .946-.396 1.38-1.48 1.38h-6.626V9.99zm15.357-3.984h3.467v-2.72h-3.467v2.72zm-.27 13.844h4.008V6.729h-4.009v13.12z" fill="#1C1C1A"/><path d="M96.17 12.891c0-3.575-1.255-6.605-3.757-9.122C89.873 1.257 86.857 0 83.323 0c-2.987 0-5.654.932-7.966 2.77-2.312 1.84-3.821 4.193-4.492 7.025-.712-2.866-2.22-5.217-4.534-7.056C64.02.932 61.353 0 58.366 0c-3.53 0-6.548 1.257-9.053 3.77-2.542 2.516-3.793 5.546-3.793 9.121 0 3.58 1.251 6.609 3.76 9.124 2.538 2.513 5.556 3.773 9.086 3.773 2.987 0 5.654-.934 7.965-2.773 2.314-1.837 3.822-4.188 4.534-7.03.67 2.872 2.18 5.224 4.492 7.065 2.312 1.838 4.98 2.772 7.965 2.772 3.535-.034 6.551-1.294 9.057-3.807 2.536-2.515 3.79-5.544 3.79-9.124" fill="#134B94"/><path d="M86.244 14.441l-2.537-4.837h-.804L80.37 14.44h5.875zm-20.07.84c0 1.317-.167 2.224-.451 2.705-.385.644-1.158 1.068-2.313 1.29-1.124.224-3.017.324-5.682.324-3.439 0-5.56-.194-6.331-.58-.995-.483-1.476-1.743-1.476-3.81h3.856c0 .68.225 1.102.642 1.26.416.195 1.507.293 3.31.293 2.083-.034 3.368-.098 3.85-.227.48-.128.739-.481.739-1.03 0-.519-.289-.837-.899-.936-.098-.036-1.154-.065-3.18-.191l-1.093-.035c-3.175-.192-5.104-.387-5.782-.74-.865-.455-1.314-1.58-1.314-3.386 0-1.808.543-2.964 1.674-3.447.895-.387 2.886-.581 6.004-.581 3.435 0 5.553.162 6.356.48.995.421 1.51 1.483 1.51 3.194v.547H61.9c0-.616-.257-1.001-.802-1.158-.416-.13-1.539-.201-3.369-.201-1.738 0-2.795.07-3.181.201-.384.127-.576.45-.576.933 0 .48.157.807.51.936.223.064.738.13 1.54.156l2.891.098c3.182.099 5.206.356 6.039.776.803.452 1.223 1.482 1.223 3.129zM93.339 19.5h-4.393l-1.19-2.253H78.89l-1.22 2.253H73.27l7.003-13.214h6.07L93.34 19.5z" fill="#FEFEFE"/></g></svg>