<svg width="191" height="50" viewBox="0 0 191 50" fill="none" xmlns="http://www.w3.org/2000/svg">
<path d="M90.3065 26.6099C90.3538 27.4807 90.2781 28.361 90.0887 29.2129C89.9184 29.7145 89.606 30.1405 89.1706 30.4528C88.7257 30.7462 88.205 30.8882 87.675 30.8693C87.1449 30.8882 86.6243 30.7368 86.1888 30.4433C85.7818 30.1499 85.4694 29.724 85.318 29.2507C85.0908 28.3515 85.0056 27.4334 85.0435 26.5058V19.7288H81.4749V25.5877C81.3992 27.1495 81.5411 28.7207 81.8914 30.2446C82.2227 31.3993 82.9326 32.4121 83.8981 33.1314C85.0056 33.8697 86.3119 34.2294 87.6466 34.1632C88.8771 34.2105 90.0982 33.9076 91.1678 33.2734C92.1049 32.6582 92.8433 31.7779 93.2598 30.7368C93.7425 29.0993 93.9413 27.3956 93.8372 25.6918V19.7288H90.3065V26.6194V26.6099Z" fill="#2D3957"/>
<path d="M99.5503 15.2412H96.0195V31.9328C96.0195 32.9555 96.8486 33.7846 97.8714 33.7846H99.5503V15.2412Z" fill="#2D3957"/>
<path d="M110.592 26.6102C110.64 27.481 110.564 28.3612 110.374 29.2131C110.214 29.7148 109.892 30.1407 109.456 30.453C109.011 30.7465 108.491 30.8884 107.961 30.8695C107.431 30.8884 106.91 30.737 106.475 30.4436C106.068 30.1502 105.755 29.7242 105.604 29.251C105.377 28.3518 105.291 27.4337 105.329 26.5061V19.729H101.761V25.5879C101.694 27.1497 101.827 28.7209 102.177 30.2448C102.508 31.3996 103.218 32.4123 104.193 33.1317C105.301 33.87 106.607 34.2297 107.942 34.1634C109.172 34.2107 110.393 33.9078 111.463 33.2737C112.4 32.6584 113.138 31.7782 113.555 30.737C114.038 29.0995 114.237 27.3958 114.132 25.6921V19.729H110.602V26.6197L110.592 26.6102Z" fill="#2D3957"/>
<path d="M122.576 15.2415H119.046V19.7102H116.273V22.7485H119.046V33.7849H122.576V22.7485H125.633V19.7102H122.576V15.2415Z" fill="#2D3957"/>
<path d="M146.216 15.2412H142.686V31.9328C142.686 32.9555 143.515 33.7846 144.537 33.7846H146.216V15.2412Z" fill="#2D3957"/>
<path d="M152.939 19.7097H149.408V33.7844H152.939V19.7097Z" fill="#2D3957"/>
<path d="M174.869 19.71H171.338V33.7847H174.869V19.71Z" fill="#2D3957"/>
<path d="M151.131 13.8889C149.938 13.8889 148.973 14.8638 148.973 16.0564C148.973 17.2491 149.938 18.2145 151.131 18.2145C152.324 18.2145 153.289 17.2491 153.289 16.0564C153.289 14.8544 152.324 13.8889 151.131 13.8889Z" fill="#2D3957"/>
<path d="M173.061 13.8889C171.868 13.8889 170.902 14.8638 170.902 16.0564C170.902 17.2491 171.868 18.2145 173.061 18.2145C174.253 18.2145 175.219 17.2491 175.219 16.0564C175.219 14.8544 174.253 13.8889 173.061 13.8889Z" fill="#2D3957"/>
<path d="M73.3047 19.3503C71.7712 19.3314 70.2472 19.6626 68.8557 20.3252V15.2507H65.3534V27.5566C65.3155 29.1562 65.8646 30.718 66.8963 31.939C67.4453 32.5637 68.1174 33.0748 68.8652 33.444C70.5406 34.2485 72.4338 34.4662 74.2418 34.0592C75.6616 33.8226 76.9679 33.1127 77.9334 32.0431C79.2681 30.6233 79.978 28.7303 79.9212 26.7805C79.997 24.8117 79.306 22.8997 77.9902 21.4326C76.807 20.0886 75.0937 19.3314 73.3047 19.3503ZM75.2925 29.7336C75.0937 29.9418 74.876 30.1311 74.6299 30.292C74.6204 30.292 74.6109 30.3015 74.6015 30.311C74.3743 30.4624 74.1282 30.5855 73.8726 30.6801C73.6738 30.7558 73.4656 30.8126 73.2479 30.8505C73.0207 30.8884 72.7935 30.9167 72.5663 30.9167C71.5251 30.9451 70.5123 30.5287 69.8023 29.762C69.0451 28.9385 68.657 27.85 68.7043 26.7237C68.657 25.6257 69.0545 24.5561 69.8023 23.7516C70.5217 23.0039 71.5251 22.5874 72.5663 22.6158C72.9166 22.6158 73.2573 22.6631 73.5886 22.7578C73.6644 22.7767 73.7306 22.7956 73.8063 22.824C74.1187 22.9187 74.4121 23.0606 74.6867 23.2405C74.9138 23.3919 75.1221 23.5718 75.3114 23.7705C76.0497 24.5751 76.4378 25.6446 76.4 26.7426C76.4378 27.85 76.0403 28.9196 75.2925 29.7336Z" fill="#2D3957"/>
<path d="M165.985 20.3817C164.878 19.6435 163.571 19.2838 162.237 19.35C161.006 19.3027 159.785 19.6056 158.715 20.2398C157.769 20.855 157.04 21.7353 156.623 22.7764C156.141 24.4139 155.942 26.1176 156.037 27.8214V33.7844H159.567V26.8843C159.52 26.0135 159.596 25.1333 159.785 24.2814C159.946 23.7797 160.268 23.3538 160.703 23.0415C161.148 22.748 161.669 22.6061 162.199 22.625C162.729 22.6061 163.25 22.7575 163.685 23.0509C164.092 23.3443 164.404 23.7703 164.565 24.2435C164.792 25.1427 164.878 26.0608 164.84 26.9884V33.7655H168.408V27.9066C168.475 26.3448 168.342 24.7736 167.992 23.2497C167.661 22.0949 166.951 21.0822 165.976 20.3723L165.985 20.3817Z" fill="#2D3957"/>
<path d="M140.59 19.7099H136.16L132.222 24.1112V15.2412H128.691V33.7846H132.222V28.6545L136.936 33.7846H141.319L134.532 26.4586L140.59 19.7099Z" fill="#2D3957"/>
<path d="M190.575 33.7846L183.788 26.4586L189.856 19.7099H185.426L181.488 24.1112V15.2412H177.957V33.7846H181.488V28.6545L186.202 33.7846H190.584H190.575Z" fill="#2D3957"/>
<g clip-path="url(#clip0_1360_19965)">
<path opacity="0.1" d="M39.4445 0H10.5556C4.72589 0 0 4.72588 0 10.5556V39.4444C0 45.2741 4.72589 50 10.5556 50H39.4445C45.2742 50 50.0001 45.2741 50.0001 39.4444V10.5556C50.0001 4.72588 45.2742 0 39.4445 0Z" fill="#1DBAB5"/>
<path d="M11.6554 17.2111C9.45543 19.4111 9.44987 22.9778 11.6443 25.1889L11.661 25.2056C13.861 27.4167 17.4332 27.4278 19.6443 25.2278L19.6555 25.2167L23.6499 21.2222L19.6388 17.2167C17.4332 15.0111 13.861 15.0111 11.6554 17.2167V17.2111Z" fill="#1A9D99"/>
<path d="M37.8945 17.8834C35.689 15.6779 32.1167 15.6779 29.9112 17.8834L24.2667 23.5279H24.2445L21.0612 26.7112C19.2001 28.5723 16.3 28.9001 14.0723 27.5001L17.1834 30.6112L21.1778 34.6056C23.3834 36.8112 26.9556 36.8112 29.1612 34.6056L37.8945 25.8723C40.1001 23.6667 40.1001 20.0945 37.8945 17.889V17.8834Z" fill="#45EAAA"/>
<g clip-path="url(#clip1_1360_19965)">
<path d="M39.4445 0H10.5556C4.72589 0 0 4.72588 0 10.5556V39.4444C0 45.2741 4.72589 50 10.5556 50H39.4445C45.2742 50 50.0001 45.2741 50.0001 39.4444V10.5556C50.0001 4.72588 45.2742 0 39.4445 0Z" fill="#45EAAA"/>
<path d="M11.6554 17.2111C9.45543 19.4111 9.44987 22.9778 11.6443 25.1889L11.661 25.2056C13.861 27.4167 17.4332 27.4278 19.6443 25.2278L19.6555 25.2167L23.6499 21.2222L19.6388 17.2167C17.4332 15.0111 13.861 15.0111 11.6554 17.2167V17.2111Z" fill="#1A9D99"/>
<path d="M37.8945 17.8834C35.689 15.6779 32.1167 15.6779 29.9112 17.8834L24.2667 23.5279H24.2445L21.0612 26.7112C19.2001 28.5723 16.3 28.9001 14.0723 27.5001L17.1834 30.6112L21.1778 34.6056C23.3834 36.8112 26.9556 36.8112 29.1612 34.6056L37.8945 25.8723C40.1001 23.6667 40.1001 20.0945 37.8945 17.889V17.8834Z" fill="white"/>
</g>
</g>
<defs>
<clipPath id="clip0_1360_19965">
<rect width="50.0001" height="50" fill="white"/>
</clipPath>
<clipPath id="clip1_1360_19965">
<rect width="50.0001" height="50" fill="white"/>
</clipPath>
</defs>
</svg>
