<svg width="2375" height="440" viewBox="0 0 2375 440" fill="none" xmlns="http://www.w3.org/2000/svg">
<g clip-path="url(#clip0_344_3224)">
<path d="M542.325 332.933C510.927 332.933 486.547 323.053 469.187 303.291C452.011 283.529 443.422 256.009 443.422 220.733C443.422 185.827 451.918 158.4 468.909 138.453C485.902 118.507 510.28 108.533 542.047 108.533C561.071 108.533 577.324 112.135 590.806 119.338C604.289 126.356 614.816 136.145 622.389 148.704C629.96 161.262 634.393 175.669 635.686 191.922H589.42C587.943 176.777 583.049 164.956 574.738 156.46C566.427 147.78 555.622 143.44 542.325 143.44C525.518 143.44 512.867 150.182 504.371 163.664C495.875 177.146 491.627 196.262 491.627 221.011C491.627 246.682 495.967 265.982 504.647 278.911C513.513 291.655 525.98 298.027 542.047 298.027C555.9 298.027 566.889 293.594 575.015 284.729C583.327 275.864 588.129 264.136 589.42 249.545H635.686C634.393 265.798 629.96 280.204 622.389 292.763C614.816 305.322 604.289 315.203 590.806 322.406C577.509 329.424 561.347 332.933 542.325 332.933ZM713.794 332.102C698.28 332.102 685.536 328.409 675.563 321.02C665.589 313.449 658.202 303.106 653.4 289.993C648.598 276.88 646.198 262.011 646.198 245.389C646.198 228.213 648.598 213.16 653.4 200.233C658.387 187.304 665.867 177.238 675.84 170.036C685.814 162.833 698.373 159.231 713.518 159.231C725.153 159.231 734.665 161.54 742.052 166.157C749.625 170.589 755.349 176.592 759.229 184.164H765.878V162.556H807.433V328.778H765.878V307.169H759.229C755.349 314.187 749.716 320.098 742.329 324.9C734.942 329.702 725.429 332.102 713.794 332.102ZM725.429 300.52C736.696 300.52 745.654 295.626 752.302 285.837C759.136 275.864 762.553 262.473 762.553 245.667C762.553 228.675 759.136 215.285 752.302 205.496C745.654 195.707 736.696 190.813 725.429 190.813C715.272 190.813 707.238 195.431 701.327 204.665C695.602 213.715 692.74 227.382 692.74 245.667C692.74 263.951 695.602 277.711 701.327 286.945C707.238 295.995 715.272 300.52 725.429 300.52ZM841.834 328.778V162.556H882.836V193.029H889.485C890.592 187.489 892.624 182.318 895.579 177.516C898.719 172.529 903.429 168.558 909.708 165.603C915.987 162.463 924.391 160.893 934.918 160.893H943.783V201.34H931.594C915.896 201.34 904.445 205.311 897.241 213.253C890.223 221.195 886.714 233.107 886.714 248.991V328.778H841.834ZM1061.21 332.102C1048.84 332.102 1038.95 329.702 1031.57 324.9C1024.18 320.098 1018.55 314.187 1014.67 307.169H1008.02V328.778H966.463V107.148H1011.34V180.84H1017.99C1022.06 174.191 1027.6 168.927 1034.61 165.049C1041.63 161.171 1050.5 159.231 1061.21 159.231C1075.98 159.231 1088.27 162.833 1098.06 170.036C1108.03 177.238 1115.42 187.304 1120.22 200.233C1125.2 213.16 1127.7 228.213 1127.7 245.389C1127.7 262.011 1125.3 276.88 1120.5 289.993C1115.69 303.106 1108.4 313.449 1098.61 321.02C1088.82 328.409 1076.35 332.102 1061.21 332.102ZM1048.47 300.52C1058.62 300.52 1066.57 295.995 1072.29 286.945C1078.2 277.711 1081.16 263.951 1081.16 245.667C1081.16 227.382 1078.2 213.715 1072.29 204.665C1066.57 195.431 1058.62 190.813 1048.47 190.813C1037.2 190.813 1028.15 195.707 1021.32 205.496C1014.67 215.285 1011.34 228.675 1011.34 245.667C1011.34 262.473 1014.67 275.864 1021.32 285.837C1028.15 295.626 1037.2 300.52 1048.47 300.52ZM1222.49 332.933C1194.97 332.933 1174.38 325.084 1160.71 309.385C1147.23 293.502 1140.49 272.262 1140.49 245.667C1140.49 219.071 1147.23 197.924 1160.71 182.225C1174.38 166.342 1194.97 158.4 1222.49 158.4C1250.02 158.4 1270.51 166.342 1283.99 182.225C1297.66 197.924 1304.5 219.071 1304.5 245.667C1304.5 272.262 1297.66 293.502 1283.99 309.385C1270.51 325.084 1250.02 332.933 1222.49 332.933ZM1222.49 303.013C1234.69 303.013 1243.64 298.211 1249.37 288.607C1255.09 279.004 1257.96 264.598 1257.96 245.389C1257.96 226.367 1255.09 212.145 1249.37 202.726C1243.64 193.122 1234.69 188.32 1222.49 188.32C1210.3 188.32 1201.35 193.122 1195.62 202.726C1189.9 212.145 1187.03 226.367 1187.03 245.389C1187.03 264.598 1189.9 279.004 1195.62 288.607C1201.35 298.211 1210.3 303.013 1222.49 303.013ZM1328.24 328.778V162.556H1369.79V187.489H1376.44C1379.77 179.178 1384.85 172.251 1391.68 166.711C1398.7 161.171 1408.95 158.4 1422.43 158.4C1440.9 158.4 1454.75 164.218 1463.99 175.853C1473.22 187.489 1477.84 203.28 1477.84 223.227V328.778H1432.96V230.707C1432.96 219.256 1430.93 210.483 1426.87 204.389C1422.8 198.109 1416.15 194.969 1406.92 194.969C1396.21 194.969 1387.89 199.217 1381.99 207.713C1376.08 216.024 1373.12 226.458 1373.12 239.018V328.778H1328.24ZM1590.49 332.933C1573.68 332.933 1559.46 330.717 1547.82 326.284C1536.38 321.667 1527.04 315.665 1519.85 308.277C1512.83 300.889 1507.56 292.855 1504.05 284.175C1500.73 275.309 1498.79 266.629 1498.24 258.133H1541.45C1541.82 264.782 1543.86 271.154 1547.55 277.249C1551.24 283.344 1556.78 288.331 1564.18 292.209C1571.56 296.087 1580.8 298.027 1591.87 298.027C1603.89 298.027 1612.75 295.626 1618.47 290.824C1624.38 285.837 1627.34 279.373 1627.34 271.431C1627.34 263.858 1624.75 257.671 1619.58 252.869C1614.59 248.067 1607.94 244.282 1599.63 241.511L1568.33 230.984C1558.36 227.66 1548.75 223.596 1539.51 218.794C1530.47 213.807 1522.99 207.343 1517.07 199.402C1511.17 191.275 1508.21 180.933 1508.21 168.373C1508.21 155.445 1511.45 144.549 1517.9 135.683C1524.55 126.818 1533.61 120.076 1545.06 115.459C1556.7 110.842 1569.99 108.533 1584.95 108.533C1604.15 108.533 1619.3 111.765 1630.38 118.23C1641.47 124.694 1649.5 132.913 1654.49 142.886C1659.66 152.675 1662.8 162.925 1663.91 173.637H1620.69C1620.32 168.466 1618.85 163.571 1616.25 158.954C1613.86 154.152 1609.97 150.273 1604.62 147.318C1599.27 144.364 1592.07 142.886 1583.01 142.886C1572.85 142.886 1565.28 145.009 1560.29 149.258C1555.5 153.506 1553.09 158.862 1553.09 165.326C1553.09 172.344 1555.58 177.978 1560.57 182.225C1565.74 186.473 1572.57 190.075 1581.07 193.029L1612.38 203.557C1622.54 206.882 1632.14 211.037 1641.19 216.024C1650.24 221.011 1657.63 227.66 1663.35 235.971C1669.26 244.097 1672.22 254.809 1672.22 268.107C1672.22 288.238 1665.01 304.122 1650.61 315.757C1636.38 327.208 1616.35 332.933 1590.49 332.933ZM1698.13 328.778V162.556H1739.69V187.489H1746.34C1749.48 179.547 1754.46 172.713 1761.3 166.989C1768.13 161.262 1778.02 158.4 1790.95 158.4C1802.39 158.4 1811.91 160.986 1819.47 166.157C1827.23 171.144 1833.14 178.254 1837.21 187.489H1843.86C1847.18 179.178 1852.35 172.251 1859.37 166.711C1866.38 161.171 1876.09 158.4 1888.46 158.4C1906.37 158.4 1919.77 164.218 1928.63 175.853C1937.49 187.489 1941.93 203.28 1941.93 223.227V328.778H1897.05V230.707C1897.05 219.44 1895.2 210.667 1891.51 204.389C1887.81 198.109 1881.81 194.969 1873.5 194.969C1863.34 194.969 1855.58 199.217 1850.22 207.713C1845.05 216.209 1842.48 226.644 1842.48 239.018V328.778H1797.6V230.707C1797.6 219.44 1795.74 210.667 1792.05 204.389C1788.36 198.109 1782.35 194.969 1774.04 194.969C1764.07 194.969 1756.41 199.217 1751.05 207.713C1745.69 216.209 1743.01 226.644 1743.01 239.018V328.778H1698.13ZM2030.99 332.102C2015.47 332.102 2002.73 328.409 1992.76 321.02C1982.79 313.449 1975.39 303.106 1970.59 289.993C1965.79 276.88 1963.39 262.011 1963.39 245.389C1963.39 228.213 1965.79 213.16 1970.59 200.233C1975.58 187.304 1983.06 177.238 1993.03 170.036C2003 162.833 2015.57 159.231 2030.71 159.231C2042.35 159.231 2051.85 161.54 2059.25 166.157C2066.81 170.589 2072.55 176.592 2076.42 184.164H2083.07V162.556H2124.63V328.778H2083.07V307.169H2076.42C2072.55 314.187 2066.91 320.098 2059.52 324.9C2052.14 329.702 2042.63 332.102 2030.99 332.102ZM2042.63 300.52C2053.88 300.52 2062.84 295.626 2069.49 285.837C2076.32 275.864 2079.75 262.473 2079.75 245.667C2079.75 228.675 2076.32 215.285 2069.49 205.496C2062.84 195.707 2053.88 190.813 2042.63 190.813C2032.47 190.813 2024.43 195.431 2018.52 204.665C2012.79 213.715 2009.93 227.382 2009.93 245.667C2009.93 263.951 2012.79 277.711 2018.52 286.945C2024.43 295.995 2032.47 300.52 2042.63 300.52ZM2159.03 328.778V162.556H2200.02V193.029H2206.67C2207.79 187.489 2209.81 182.318 2212.77 177.516C2215.91 172.529 2220.62 168.558 2226.9 165.603C2233.18 162.463 2241.58 160.893 2252.12 160.893H2260.98V201.34H2248.79C2233.09 201.34 2221.63 205.311 2214.43 213.253C2207.42 221.195 2203.91 233.107 2203.91 248.991V328.778H2159.03ZM2308.03 328.778C2303.79 323.791 2300.37 317.789 2297.79 310.771C2295.38 303.752 2294.18 293.225 2294.18 279.189V194.138H2271.46V162.556H2294.73V121H2338.78V162.556H2365.66V194.138H2338.78V274.478C2338.78 289.069 2340.45 300.243 2343.77 308C2347.09 315.757 2351.07 322.129 2355.69 327.116V328.778H2308.03Z" fill="#033007"/>
<path d="M172.679 403.524L167.716 404.611C161.724 405.389 155.659 405.389 149.665 404.611L143.997 403.644L143.753 440H172.913L172.679 403.524Z" fill="#6CBE3A"/>
<path d="M21.1147 101.845C31.5487 78.6966 45.4566 58.4198 61.9251 42.1783C66.6691 37.5049 73.3613 38.2139 77.434 43.8207L142.745 133.701C149.585 143.114 152.94 154.22 152.827 167.07L151.965 262.803C151.944 265.377 150.795 267.56 148.938 268.558C147.086 269.555 145.061 269.077 143.603 267.298L23.1339 119.847C19.2441 115.091 18.4307 107.8 21.1147 101.845ZM137.769 404.213C59.9972 391.022 0 305.959 0 203C0 184.228 1.99628 166.055 5.73098 148.797C6.87063 143.533 9.91125 139.745 14.0587 138.428C18.2045 137.099 22.2913 138.617 25.2261 142.581L140.983 298.44C148.003 307.892 151.463 319.164 151.347 332.193L150.83 389.762C150.79 394.137 149.429 397.881 146.844 400.747C144.256 403.605 141.159 404.791 137.769 404.213ZM317.733 198.172C317.759 199.776 317.778 201.389 317.778 203C317.778 305.959 257.774 391.022 180.009 404.213C176.612 404.791 173.523 403.605 170.935 400.747C168.349 397.881 166.987 394.137 166.948 389.762L166.903 384.456C166.782 371.428 170.24 360.157 177.266 350.703L297.824 188.375C301.112 183.951 305.894 182.568 310.345 184.76C314.802 186.951 317.623 192.073 317.733 198.172ZM278.007 68.6704C292.54 89.6975 303.719 114.594 310.471 142.009C311.818 147.49 310.695 153.104 307.446 157.08L174.646 319.61C173.189 321.392 171.162 321.869 169.306 320.872C167.453 319.875 166.3 317.698 166.277 315.126L165.416 219.224C165.302 206.372 168.664 195.261 175.512 185.841L260.902 68.3986C263.197 65.2318 266.121 63.6367 269.499 63.6899C272.877 63.7372 275.769 65.4328 278.007 68.6704ZM158.89 0C193.253 0 225.064 13.9432 251.052 37.6349C253.967 40.2878 255.624 44.0925 255.865 48.6476C256.107 53.2087 254.863 57.2559 252.258 60.3813L173.136 155.402C171.675 157.157 169.663 157.618 167.815 156.613C165.967 155.608 164.831 153.434 164.808 150.876L163.909 50.621C163.879 47.1707 161.666 44.3761 158.963 44.3761H158.814C156.113 44.3761 153.9 47.1707 153.869 50.621L153.44 98.5362C153.418 101.106 152.283 103.28 150.435 104.285C148.589 105.289 146.574 104.828 145.112 103.074L93.0826 40.589C90.1566 37.0795 88.9234 32.3235 89.6246 27.2839C90.3162 22.2324 92.7535 18.3035 96.4425 16.2888C115.613 5.81366 136.72 0 158.89 0Z" fill="#6CBE3A"/>
</g>
<defs>
<clipPath id="clip0_344_3224">
<rect width="2374.78" height="440" fill="white"/>
</clipPath>
</defs>
</svg>
