<?xml version="1.0" encoding="UTF-8"?>
<svg xmlns="http://www.w3.org/2000/svg" xmlns:xlink="http://www.w3.org/1999/xlink" width="120px" height="38px" viewBox="0 0 118 38" version="1.1">
<g id="surface1">
<path style=" stroke:none;fill-rule:nonzero;fill:rgb(17.647059%,16.470588%,14.901961%);fill-opacity:1;" d="M 107.921875 29.269531 C 102.558594 29.269531 98.503906 25.742188 97.933594 25.039062 L 101.4375 21.261719 C 102.851562 22.335938 104.734375 23.429688 107.410156 23.875 C 109.535156 24.226562 111.085938 23.710938 111.503906 23.089844 C 111.851562 22.5625 111.875 21.90625 111.246094 21.398438 C 110.625 20.902344 109.535156 20.507812 107.742188 20.085938 L 107.535156 20.035156 C 104.089844 19.222656 99 17.660156 99 12.761719 C 99 9.714844 101.113281 7.320312 104.796875 6.195312 C 108.148438 5.167969 113.820312 6.121094 116.9375 8.230469 L 113.851562 12.796875 C 111.589844 11.125 107.601562 10.671875 106.375 11.40625 C 105.671875 11.828125 105.589844 12.796875 106.289062 13.277344 C 107.757812 14.285156 114.871094 15.78125 116.800781 18.378906 C 118.433594 20.574219 118.394531 23.207031 116.710938 25.492188 C 115.019531 27.789062 111.648438 29.269531 107.921875 29.269531 "/>
<path style=" stroke:none;fill-rule:nonzero;fill:rgb(17.647059%,16.470588%,14.901961%);fill-opacity:1;" d="M 8.429688 6.40625 L 0 6.40625 L 0 28.664062 L 8.429688 28.664062 C 15.085938 28.664062 19.738281 24.125 19.738281 17.617188 L 19.738281 17.535156 C 19.734375 10.984375 15.085938 6.40625 8.429688 6.40625 M 14.367188 17.621094 C 14.367188 21.117188 12.089844 23.289062 8.425781 23.289062 L 5.367188 23.289062 L 5.367188 11.785156 L 8.429688 11.785156 C 12.09375 11.785156 14.371094 13.988281 14.371094 17.535156 L 14.371094 17.621094 Z M 14.367188 17.621094 "/>
<path style=" stroke:none;fill-rule:nonzero;fill:rgb(17.647059%,16.470588%,14.901961%);fill-opacity:1;" d="M 110.199219 33.683594 C 110.199219 32.449219 109.199219 31.445312 107.964844 31.445312 C 106.734375 31.445312 105.730469 32.449219 105.730469 33.683594 C 105.730469 34.921875 106.734375 35.925781 107.964844 35.925781 C 109.199219 35.925781 110.199219 34.921875 110.199219 33.683594 "/>
<path style=" stroke:none;fill-rule:nonzero;fill:rgb(17.647059%,16.470588%,14.901961%);fill-opacity:1;" d="M 61.957031 15.585938 L 61.957031 19.863281 L 65.769531 19.863281 C 64.859375 22.042969 62.710938 23.582031 60.210938 23.582031 C 56.886719 23.582031 54.183594 20.871094 54.183594 17.535156 C 54.183594 14.203125 56.886719 11.492188 60.210938 11.492188 C 61.910156 11.492188 63.539062 12.21875 64.679688 13.480469 L 68.894531 9.652344 C 66.675781 7.195312 63.511719 5.789062 60.207031 5.789062 C 53.746094 5.789062 48.492188 11.058594 48.492188 17.535156 C 48.492188 24.015625 53.746094 29.285156 60.207031 29.285156 C 66.667969 29.285156 71.921875 24.015625 71.921875 17.535156 L 71.921875 15.582031 L 61.957031 15.582031 Z M 61.957031 15.585938 "/>
<path style=" stroke:none;fill-rule:nonzero;fill:rgb(17.647059%,16.470588%,14.901961%);fill-opacity:1;" d="M 56.855469 0.015625 L 63.617188 0.015625 L 63.617188 3.636719 L 56.855469 3.636719 Z M 56.855469 0.015625 "/>
<path style=" stroke:none;fill-rule:nonzero;fill:rgb(17.647059%,16.470588%,14.901961%);fill-opacity:1;" d="M 96.054688 6.421875 L 90.375 6.421875 L 90.375 18.023438 C 90.375 20.992188 88.210938 23.589844 85.242188 23.589844 C 82.28125 23.589844 80.253906 20.992188 80.253906 18.023438 L 80.253906 6.421875 L 74.574219 6.421875 L 74.574219 18.023438 C 74.574219 24.140625 79.089844 29.289062 85.1875 29.289062 C 91.285156 29.289062 96.058594 24.140625 96.058594 18.023438 C 96.058594 17.953125 96.054688 17.878906 96.050781 17.828125 L 96.050781 6.421875 Z M 96.054688 6.421875 "/>
<path style=" stroke:none;fill-rule:nonzero;fill:rgb(25.490196%,32.54902%,39.215686%);fill-opacity:1;" d="M 37.585938 28.375 C 37.523438 27.660156 37.269531 26.875 36.882812 26.222656 C 36.648438 25.835938 36.019531 24.90625 35.144531 24.667969 C 34.835938 24.585938 34.480469 24.5625 34.117188 24.597656 C 33.96875 24.609375 33.808594 24.632812 33.628906 24.664062 C 33.007812 24.769531 32.304688 24.929688 31.789062 25.445312 C 31.308594 25.929688 30.675781 27.257812 30.683594 29.140625 C 31.050781 29.246094 31.421875 29.335938 31.800781 29.40625 C 31.746094 27.398438 32.34375 26.492188 32.585938 26.246094 C 32.867188 25.964844 33.351562 25.863281 33.820312 25.78125 C 33.96875 25.753906 34.097656 25.738281 34.210938 25.726562 C 34.441406 25.707031 34.667969 25.714844 34.84375 25.765625 C 35.160156 25.851562 35.585938 26.269531 35.910156 26.808594 C 36.207031 27.308594 36.414062 27.929688 36.457031 28.472656 C 36.472656 28.664062 36.433594 28.886719 36.390625 29.117188 C 36.375 29.207031 36.355469 29.296875 36.34375 29.386719 C 36.746094 29.308594 37.144531 29.207031 37.539062 29.085938 C 37.578125 28.863281 37.605469 28.625 37.585938 28.375 "/>
<path style=" stroke:none;fill-rule:nonzero;fill:rgb(25.490196%,32.54902%,39.215686%);fill-opacity:1;" d="M 40.03125 26.054688 C 39.699219 24.878906 39.003906 23.800781 38.066406 23.015625 C 37.746094 22.746094 37.414062 22.5625 37.09375 22.382812 C 36.914062 22.285156 36.75 22.195312 36.589844 22.089844 C 36.023438 21.726562 35.4375 21.675781 34.941406 21.675781 C 34.785156 21.675781 34.625 21.683594 34.457031 21.6875 C 33.847656 21.710938 33.152344 21.734375 32.480469 21.925781 C 31.945312 22.078125 31.441406 22.332031 30.957031 22.574219 L 30.75 22.675781 C 30.4375 22.835938 30.078125 23.011719 29.769531 23.289062 C 29.578125 23.457031 29.429688 23.644531 29.304688 23.808594 C 28.539062 24.8125 28.074219 26.40625 27.996094 28.003906 C 28.355469 28.214844 28.726562 28.398438 29.101562 28.5625 C 29.121094 27.847656 29.121094 27.199219 29.230469 26.707031 C 29.449219 25.671875 29.558594 25.335938 30.203125 24.496094 C 30.292969 24.375 30.402344 24.238281 30.515625 24.132812 C 30.714844 23.957031 30.984375 23.824219 31.253906 23.691406 L 31.460938 23.585938 C 31.902344 23.367188 32.351562 23.140625 32.785156 23.015625 C 33.328125 22.859375 33.921875 22.835938 34.496094 22.816406 C 34.648438 22.8125 34.792969 22.804688 34.9375 22.804688 C 35.339844 22.804688 35.671875 22.847656 35.972656 23.039062 C 36.164062 23.164062 36.355469 23.269531 36.539062 23.371094 C 36.824219 23.527344 37.09375 23.679688 37.332031 23.875 C 38.097656 24.519531 38.667969 25.398438 38.933594 26.355469 C 39.058594 26.792969 39.117188 27.253906 39.117188 27.714844 L 39.117188 28.472656 C 39.503906 28.292969 39.878906 28.089844 40.246094 27.867188 L 40.246094 27.714844 C 40.257812 27.152344 40.179688 26.589844 40.03125 26.054688 "/>
<path style=" stroke:none;fill-rule:nonzero;fill:rgb(25.490196%,32.54902%,39.215686%);fill-opacity:1;" d="M 39.71875 21.6875 C 38.871094 20.816406 37.941406 20.179688 36.949219 19.789062 C 36.113281 19.460938 35.183594 19.296875 34.183594 19.296875 L 34.136719 19.296875 C 34.066406 19.296875 34 19.296875 33.929688 19.300781 C 33.21875 19.320312 32.59375 19.417969 32.019531 19.605469 C 31.210938 19.863281 30.503906 20.296875 29.816406 20.714844 C 29.382812 20.980469 28.890625 21.28125 28.484375 21.699219 C 28.132812 22.066406 27.871094 22.5 27.660156 22.875 C 27.355469 23.417969 27.113281 23.925781 26.921875 24.425781 C 26.628906 25.191406 26.410156 26 26.285156 26.792969 C 26.570312 27.039062 26.867188 27.265625 27.171875 27.476562 C 27.273438 26.75 27.578125 25.597656 27.925781 24.707031 C 28.097656 24.257812 28.296875 23.824219 28.574219 23.324219 C 28.757812 22.996094 28.980469 22.710938 29.242188 22.441406 C 29.546875 22.125 30.011719 21.921875 30.40625 21.683594 C 31.035156 21.300781 31.683594 20.902344 32.367188 20.683594 C 32.835938 20.53125 33.359375 20.453125 33.964844 20.433594 C 34.023438 20.433594 34.089844 20.429688 34.148438 20.429688 L 34.1875 20.429688 C 35.042969 20.429688 35.835938 20.570312 36.542969 20.847656 C 37.382812 21.175781 38.175781 21.722656 38.910156 22.476562 C 40.011719 23.613281 40.714844 24.984375 40.890625 26.347656 C 40.9375 26.695312 40.976562 26.835938 41.019531 27.371094 C 41.371094 27.121094 41.71875 26.847656 42.046875 26.554688 C 42.039062 26.4375 42.027344 26.316406 42.011719 26.199219 C 41.804688 24.597656 40.988281 22.992188 39.71875 21.6875 "/>
<path style=" stroke:none;fill-rule:nonzero;fill:rgb(25.490196%,32.54902%,39.215686%);fill-opacity:1;" d="M 41.914062 19.21875 C 41.132812 18.476562 40.042969 18.039062 39.078125 17.648438 C 38.859375 17.5625 38.648438 17.480469 38.445312 17.390625 L 37.367188 16.933594 C 36.734375 16.664062 36.078125 16.382812 35.367188 16.234375 C 34.980469 16.152344 34.582031 16.09375 34.179688 16.0625 C 32.429688 15.921875 31.082031 16.136719 29.964844 16.722656 C 27.902344 17.796875 26.457031 19.175781 25.484375 20.703125 C 25.210938 21.132812 24.421875 22.472656 23.921875 24.101562 C 23.921875 24.101562 24.429688 24.847656 24.71875 25.203125 C 25.285156 23.277344 26.195312 21.734375 26.460938 21.277344 C 27.265625 19.898438 28.617188 18.699219 30.484375 17.726562 C 31.410156 17.242188 32.566406 17.070312 34.089844 17.191406 C 34.445312 17.21875 34.792969 17.269531 35.136719 17.34375 C 35.738281 17.46875 36.316406 17.714844 36.925781 17.976562 L 38.003906 18.433594 C 38.214844 18.523438 38.433594 18.609375 38.65625 18.699219 C 39.570312 19.066406 40.511719 19.445312 41.136719 20.039062 C 41.941406 20.800781 42.589844 21.769531 42.957031 22.769531 C 43.207031 23.441406 43.398438 24.175781 43.539062 24.984375 C 43.863281 24.574219 44.160156 24.148438 44.425781 23.707031 C 44.308594 23.242188 44.175781 22.796875 44.019531 22.371094 C 43.589844 21.21875 42.839844 20.09375 41.914062 19.21875 "/>
<path style=" stroke:none;fill-rule:nonzero;fill:rgb(25.490196%,32.54902%,39.215686%);fill-opacity:1;" d="M 42.21875 15.292969 C 41.625 14.9375 40.992188 14.636719 40.445312 14.386719 C 39.371094 13.898438 38.113281 13.347656 36.785156 13.074219 C 36.003906 12.917969 35.164062 12.835938 34.144531 12.832031 L 33.800781 12.832031 C 31.484375 12.847656 29.164062 13.484375 27.101562 14.667969 C 26.789062 14.847656 26.542969 15.058594 26.308594 15.257812 C 26.15625 15.390625 26.011719 15.511719 25.855469 15.621094 C 25.3125 16 24.867188 16.328125 24.429688 16.710938 C 23.492188 17.546875 22.742188 18.480469 22.203125 19.480469 C 22.191406 19.503906 22.179688 19.527344 22.167969 19.546875 C 22.265625 20.148438 22.410156 20.738281 22.597656 21.320312 C 22.609375 21.289062 22.621094 21.261719 22.632812 21.230469 C 22.816406 20.804688 22.988281 20.402344 23.199219 20.015625 C 23.671875 19.128906 24.335938 18.304688 25.179688 17.558594 C 25.570312 17.210938 25.988281 16.90625 26.496094 16.550781 C 26.699219 16.410156 26.871094 16.261719 27.035156 16.125 C 27.242188 15.949219 27.4375 15.785156 27.660156 15.652344 C 29.554688 14.566406 31.679688 13.980469 33.808594 13.964844 L 34.132812 13.964844 C 35.078125 13.96875 35.847656 14.042969 36.558594 14.1875 C 37.769531 14.4375 38.957031 14.953125 39.972656 15.421875 C 40.515625 15.671875 41.09375 15.941406 41.640625 16.269531 C 43.328125 17.285156 44.671875 18.847656 45.425781 20.667969 C 45.464844 20.757812 45.5 20.851562 45.535156 20.945312 C 45.558594 21 45.582031 21.054688 45.605469 21.109375 C 45.792969 20.519531 45.933594 19.921875 46.03125 19.3125 C 45.148438 17.660156 43.824219 16.257812 42.21875 15.292969 "/>
<path style=" stroke:none;fill-rule:nonzero;fill:rgb(25.490196%,32.54902%,39.215686%);fill-opacity:1;" d="M 44.273438 13.875 C 43.109375 12.925781 41.792969 12.285156 40.476562 11.785156 C 39.65625 11.46875 38.632812 11.246094 37.707031 11.007812 C 36.511719 10.695312 35.402344 10.429688 34.148438 10.414062 L 33.976562 10.414062 C 32.925781 10.414062 31.851562 10.65625 30.824219 10.867188 C 28.503906 11.347656 26.367188 12.332031 24.453125 13.84375 C 23.632812 14.488281 22.101562 16.101562 22.089844 16.195312 C 22.027344 16.757812 22 17.324219 22.015625 17.890625 C 22.863281 16.6875 23.882812 15.59375 25.066406 14.667969 C 26.84375 13.265625 28.921875 12.289062 31.074219 11.84375 C 32.023438 11.648438 33.003906 11.550781 33.976562 11.550781 L 34.136719 11.550781 C 35.296875 11.5625 36.449219 11.714844 37.5625 12.003906 C 38.433594 12.230469 39.285156 12.542969 40.074219 12.847656 C 41.304688 13.316406 42.589844 13.84375 43.628906 14.691406 C 44.652344 15.519531 45.453125 16.375 46.175781 17.761719 C 46.195312 17.140625 46.164062 16.519531 46.089844 15.898438 C 46.078125 15.808594 44.933594 14.414062 44.273438 13.875 "/>
<path style=" stroke:none;fill-rule:nonzero;fill:rgb(25.490196%,32.54902%,39.215686%);fill-opacity:1;" d="M 39.917969 9.421875 C 39.289062 9.230469 38.628906 9.109375 38.097656 9.011719 C 36.78125 8.769531 35.488281 8.546875 34.164062 8.488281 C 33.496094 8.453125 32.863281 8.46875 32.269531 8.523438 C 30.140625 8.726562 28.160156 9.511719 26.25 10.269531 C 25.09375 10.726562 24.140625 11.453125 23.253906 12.222656 C 22.882812 12.976562 22.597656 13.761719 22.390625 14.566406 C 23.179688 13.511719 25.335938 11.851562 26.609375 11.261719 C 28.390625 10.441406 30.40625 9.839844 32.378906 9.652344 C 32.917969 9.597656 33.5 9.585938 34.113281 9.617188 C 35.367188 9.675781 36.617188 9.890625 37.898438 10.125 C 38.535156 10.238281 39.066406 10.339844 39.585938 10.503906 C 40.097656 10.660156 41.707031 11.347656 42.34375 11.671875 C 44.0625 12.542969 45.125 13.503906 45.738281 14.148438 C 45.5625 13.515625 45.335938 12.894531 45.054688 12.292969 C 44.050781 11.496094 42.957031 10.789062 41.777344 10.195312 C 41.085938 9.84375 40.492188 9.597656 39.917969 9.421875 "/>
<path style=" stroke:none;fill-rule:nonzero;fill:rgb(25.490196%,32.54902%,39.215686%);fill-opacity:1;" d="M 35.648438 5.472656 C 33.988281 5.269531 32.292969 5.40625 30.671875 5.898438 C 28.996094 6.40625 27.402344 7.285156 26.015625 8.542969 C 25.679688 8.847656 25.367188 9.167969 25.070312 9.503906 C 25.058594 9.515625 25.0625 9.527344 25.078125 9.519531 C 25.332031 9.378906 25.585938 9.222656 25.847656 9.054688 C 26.988281 8.328125 29.152344 7.425781 30.394531 7.109375 C 31.65625 6.78125 32.476562 6.5625 34.164062 6.5625 C 34.378906 6.5625 34.589844 6.550781 34.804688 6.554688 C 35.550781 6.570312 36.339844 6.667969 37.21875 6.855469 C 39.171875 7.269531 41.035156 8.011719 42.78125 9.054688 C 42.816406 9.078125 42.828125 9.054688 42.796875 9.023438 C 40.824219 6.984375 38.289062 5.792969 35.648438 5.472656 "/>
<path style=" stroke:none;fill-rule:nonzero;fill:rgb(25.490196%,32.54902%,39.215686%);fill-opacity:1;" d="M 19.804688 37.984375 C 19.476562 37.984375 19.175781 37.933594 18.902344 37.828125 C 18.632812 37.71875 18.394531 37.566406 18.199219 37.375 C 18 37.179688 17.84375 36.945312 17.734375 36.675781 C 17.625 36.402344 17.570312 36.097656 17.570312 35.769531 C 17.570312 35.441406 17.625 35.136719 17.730469 34.867188 C 17.839844 34.597656 17.992188 34.363281 18.191406 34.167969 C 18.386719 33.96875 18.625 33.816406 18.898438 33.710938 C 19.167969 33.601562 19.472656 33.550781 19.796875 33.550781 C 20.125 33.550781 20.425781 33.601562 20.699219 33.710938 C 20.96875 33.816406 21.207031 33.96875 21.402344 34.167969 C 21.601562 34.363281 21.757812 34.597656 21.867188 34.867188 C 21.976562 35.140625 22.03125 35.441406 22.03125 35.769531 C 22.03125 36.101562 21.976562 36.402344 21.871094 36.675781 C 21.761719 36.945312 21.605469 37.179688 21.410156 37.375 C 21.214844 37.566406 20.976562 37.71875 20.703125 37.828125 C 20.433594 37.933594 20.128906 37.984375 19.804688 37.984375 Z M 19.792969 37.195312 C 19.984375 37.195312 20.164062 37.160156 20.328125 37.09375 C 20.492188 37.027344 20.632812 36.933594 20.75 36.808594 C 20.867188 36.6875 20.960938 36.539062 21.027344 36.363281 C 21.09375 36.1875 21.128906 35.996094 21.128906 35.78125 C 21.128906 35.5625 21.09375 35.363281 21.027344 35.183594 C 20.960938 35.007812 20.867188 34.855469 20.75 34.730469 C 20.632812 34.605469 20.488281 34.507812 20.328125 34.441406 C 20.164062 34.375 19.984375 34.339844 19.792969 34.339844 C 19.601562 34.339844 19.425781 34.375 19.265625 34.441406 C 19.101562 34.507812 18.964844 34.605469 18.847656 34.730469 C 18.726562 34.855469 18.632812 35.003906 18.570312 35.183594 C 18.503906 35.363281 18.472656 35.5625 18.472656 35.78125 C 18.472656 35.996094 18.507812 36.1875 18.574219 36.363281 C 18.640625 36.539062 18.734375 36.6875 18.847656 36.808594 C 18.964844 36.933594 19.101562 37.027344 19.265625 37.09375 C 19.425781 37.160156 19.601562 37.195312 19.792969 37.195312 Z M 19.792969 37.195312 "/>
<path style=" stroke:none;fill-rule:nonzero;fill:rgb(25.490196%,32.54902%,39.215686%);fill-opacity:1;" d="M 22.300781 33.628906 L 25.46875 33.628906 L 25.46875 34.382812 L 24.328125 34.382812 L 24.328125 37.910156 L 23.441406 37.910156 L 23.441406 34.382812 L 22.304688 34.382812 L 22.304688 33.628906 Z M 22.300781 33.628906 "/>
<path style=" stroke:none;fill-rule:nonzero;fill:rgb(25.490196%,32.54902%,39.215686%);fill-opacity:1;" d="M 27.96875 37.984375 C 27.640625 37.984375 27.339844 37.933594 27.066406 37.828125 C 26.796875 37.71875 26.558594 37.566406 26.363281 37.375 C 26.164062 37.179688 26.007812 36.945312 25.898438 36.675781 C 25.789062 36.402344 25.734375 36.097656 25.734375 35.769531 C 25.734375 35.441406 25.789062 35.136719 25.894531 34.867188 C 26.003906 34.597656 26.15625 34.363281 26.355469 34.167969 C 26.550781 33.96875 26.789062 33.816406 27.0625 33.710938 C 27.332031 33.601562 27.636719 33.550781 27.960938 33.550781 C 28.289062 33.550781 28.589844 33.601562 28.863281 33.710938 C 29.132812 33.816406 29.371094 33.96875 29.566406 34.167969 C 29.765625 34.363281 29.921875 34.597656 30.03125 34.867188 C 30.140625 35.140625 30.195312 35.441406 30.195312 35.769531 C 30.195312 36.101562 30.140625 36.402344 30.035156 36.675781 C 29.925781 36.945312 29.769531 37.179688 29.574219 37.375 C 29.378906 37.566406 29.140625 37.71875 28.867188 37.828125 C 28.59375 37.933594 28.296875 37.984375 27.96875 37.984375 Z M 27.957031 37.195312 C 28.148438 37.195312 28.328125 37.160156 28.492188 37.09375 C 28.65625 37.027344 28.796875 36.933594 28.914062 36.808594 C 29.03125 36.6875 29.125 36.539062 29.191406 36.363281 C 29.257812 36.1875 29.292969 35.996094 29.292969 35.78125 C 29.292969 35.5625 29.257812 35.363281 29.191406 35.183594 C 29.125 35.007812 29.03125 34.855469 28.914062 34.730469 C 28.796875 34.605469 28.652344 34.507812 28.492188 34.441406 C 28.328125 34.375 28.148438 34.339844 27.957031 34.339844 C 27.765625 34.339844 27.589844 34.375 27.429688 34.441406 C 27.265625 34.507812 27.128906 34.605469 27.007812 34.730469 C 26.890625 34.855469 26.796875 35.003906 26.734375 35.183594 C 26.667969 35.363281 26.636719 35.5625 26.636719 35.78125 C 26.636719 35.996094 26.671875 36.1875 26.738281 36.363281 C 26.804688 36.539062 26.898438 36.6875 27.011719 36.808594 C 27.128906 36.933594 27.265625 37.027344 27.429688 37.09375 C 27.589844 37.160156 27.769531 37.195312 27.957031 37.195312 Z M 27.957031 37.195312 "/>
<path style=" stroke:none;fill-rule:nonzero;fill:rgb(25.490196%,32.54902%,39.215686%);fill-opacity:1;" d="M 31.195312 33.628906 L 31.929688 33.628906 L 33.371094 36.84375 L 34.828125 33.628906 L 35.492188 33.628906 L 35.9375 37.910156 L 35.0625 37.910156 L 34.792969 35.324219 L 33.613281 37.910156 L 33.003906 37.910156 L 31.835938 35.347656 L 31.578125 37.910156 L 30.75 37.910156 Z M 31.195312 33.628906 "/>
<path style=" stroke:none;fill-rule:nonzero;fill:rgb(25.490196%,32.54902%,39.215686%);fill-opacity:1;" d="M 38.726562 37.984375 C 38.398438 37.984375 38.097656 37.933594 37.824219 37.828125 C 37.550781 37.71875 37.316406 37.566406 37.117188 37.375 C 36.921875 37.179688 36.765625 36.945312 36.65625 36.675781 C 36.546875 36.402344 36.492188 36.097656 36.492188 35.769531 C 36.492188 35.441406 36.546875 35.136719 36.652344 34.867188 C 36.761719 34.597656 36.914062 34.363281 37.113281 34.167969 C 37.308594 33.96875 37.546875 33.816406 37.820312 33.710938 C 38.089844 33.601562 38.390625 33.550781 38.71875 33.550781 C 39.046875 33.550781 39.347656 33.601562 39.617188 33.710938 C 39.890625 33.816406 40.128906 33.96875 40.324219 34.167969 C 40.523438 34.363281 40.679688 34.597656 40.789062 34.867188 C 40.898438 35.140625 40.953125 35.441406 40.953125 35.769531 C 40.953125 36.101562 40.898438 36.402344 40.789062 36.675781 C 40.679688 36.945312 40.527344 37.179688 40.332031 37.375 C 40.132812 37.566406 39.898438 37.71875 39.625 37.828125 C 39.351562 37.933594 39.050781 37.984375 38.726562 37.984375 Z M 38.714844 37.195312 C 38.90625 37.195312 39.085938 37.160156 39.25 37.09375 C 39.414062 37.027344 39.554688 36.933594 39.671875 36.808594 C 39.789062 36.6875 39.882812 36.539062 39.949219 36.363281 C 40.015625 36.1875 40.050781 35.996094 40.050781 35.78125 C 40.050781 35.5625 40.015625 35.363281 39.949219 35.183594 C 39.882812 35.007812 39.789062 34.855469 39.671875 34.730469 C 39.550781 34.605469 39.410156 34.507812 39.25 34.441406 C 39.082031 34.375 38.90625 34.339844 38.714844 34.339844 C 38.523438 34.339844 38.347656 34.375 38.1875 34.441406 C 38.023438 34.507812 37.886719 34.605469 37.765625 34.730469 C 37.648438 34.855469 37.554688 35.003906 37.492188 35.183594 C 37.425781 35.363281 37.394531 35.5625 37.394531 35.78125 C 37.394531 35.996094 37.429688 36.1875 37.496094 36.363281 C 37.5625 36.539062 37.652344 36.6875 37.769531 36.808594 C 37.886719 36.933594 38.023438 37.027344 38.1875 37.09375 C 38.34375 37.160156 38.523438 37.195312 38.714844 37.195312 Z M 38.714844 37.195312 "/>
<path style=" stroke:none;fill-rule:nonzero;fill:rgb(25.490196%,32.54902%,39.215686%);fill-opacity:1;" d="M 41.21875 33.628906 L 44.386719 33.628906 L 44.386719 34.382812 L 43.246094 34.382812 L 43.246094 37.910156 L 42.359375 37.910156 L 42.359375 34.382812 L 41.222656 34.382812 L 41.222656 33.628906 Z M 41.21875 33.628906 "/>
<path style=" stroke:none;fill-rule:nonzero;fill:rgb(25.490196%,32.54902%,39.215686%);fill-opacity:1;" d="M 45.457031 33.4375 C 45.328125 33.4375 45.21875 33.390625 45.125 33.296875 C 45.035156 33.207031 44.988281 33.09375 44.988281 32.960938 C 44.988281 32.832031 45.035156 32.722656 45.125 32.628906 C 45.214844 32.53125 45.328125 32.484375 45.457031 32.484375 C 45.589844 32.484375 45.699219 32.53125 45.792969 32.628906 C 45.882812 32.722656 45.929688 32.832031 45.929688 32.960938 C 45.929688 33.09375 45.882812 33.207031 45.792969 33.296875 C 45.703125 33.390625 45.589844 33.4375 45.457031 33.4375 Z M 45.015625 33.628906 L 45.898438 33.628906 L 45.898438 37.910156 L 45.015625 37.910156 Z M 45.015625 33.628906 "/>
<path style=" stroke:none;fill-rule:nonzero;fill:rgb(25.490196%,32.54902%,39.215686%);fill-opacity:1;" d="M 46.527344 33.628906 L 47.515625 33.628906 L 48.636719 36.691406 L 49.769531 33.628906 L 50.683594 33.628906 L 48.976562 37.910156 L 48.238281 37.910156 Z M 46.527344 33.628906 "/>
</g>
</svg>
