<?xml version="1.0" encoding="UTF-8"?>
<!-- Generator: Adobe Illustrator 27.3.1, SVG Export Plug-In . SVG Version: 6.00 Build 0)  -->
<svg xmlns="http://www.w3.org/2000/svg" xmlns:xlink="http://www.w3.org/1999/xlink" version="1.1" id="katman_1" x="0px" y="0px" viewBox="0 0 432.5 107.3" style="enable-background:new 0 0 432.5 107.3;" xml:space="preserve">
<style type="text/css">
	.st0{fill:#0049ED;}
	.st1{fill:#FFFFFF;}
	.st2{enable-background:new    ;}
	.st3{fill:#343434;}
</style>
<path class="st0" d="M22.3,2.6h67.5c9.6,0,17.3,7.7,17.3,17.3v67.5c0,9.6-7.7,17.3-17.3,17.3H22.3C12.7,104.7,5,97,5,87.4V19.9  C5,10.4,12.7,2.6,22.3,2.6z"></path>
<g>
	<path class="st1" d="M56,71.9c-10,0-18.2-8.2-18.2-18.2S46,35.5,56,35.5s18.2,8.2,18.2,18.2S66.1,71.9,56,71.9z M56,42.5   c-6.2,0-11.2,5-11.2,11.2s5,11.2,11.2,11.2s11.2-5,11.2-11.2S62.2,42.5,56,42.5z"></path>
	<path class="st1" d="M35.7,68.1C32.8,64,31,59,31,53.7c0-13.8,11.2-25,25-25c5.4,0,10.3,1.7,14.4,4.6l7-7   c-5.9-4.6-13.3-7.4-21.4-7.4c-19.2,0-34.8,15.6-34.8,34.8c0,8.1,2.8,15.5,7.4,21.4L35.7,68.1L35.7,68.1z"></path>
	<path class="st1" d="M76.4,39.2c2.9,4.1,4.6,9,4.6,14.4c0,13.8-11.2,25-25,25c-5.4,0-10.3-1.7-14.4-4.6l-7,7   c5.9,4.6,13.3,7.4,21.4,7.4c19.2,0,34.8-15.6,34.8-34.8c0-8.1-2.8-15.5-7.4-21.4L76.4,39.2L76.4,39.2z"></path>
</g>
<g class="st2">
	<path class="st3" d="M147.9,40.9v-3c0-8,1.7-14,5.1-17.9c3.4-3.9,7.5-5.9,12.3-5.9c2.1,0,4.5,0.3,7.3,1v9.6   c-1.6-0.6-3.1-0.9-4.6-0.9c-3.9,0-6.5,1-8,3.1c-1.5,2.1-2.2,5.7-2.2,11v3h8.9v8.9h-8.9v41h-9.9v-41h-7.2v-8.9H147.9z"></path>
	<path class="st3" d="M186.3,19.9c1.6,0,3,0.6,4.2,1.7c1.2,1.1,1.7,2.5,1.7,4.1c0,1.6-0.6,3-1.7,4.1c-1.2,1.2-2.5,1.7-4.2,1.7   c-1.5,0-2.9-0.6-4-1.8c-1.2-1.2-1.7-2.5-1.7-4.1c0-1.5,0.6-2.9,1.7-4C183.4,20.5,184.8,19.9,186.3,19.9z M181.4,40.9h9.9v49.9h-9.9   V40.9z"></path>
	<path class="st3" d="M207.5,40.9h42.6l-26.4,40.6h26.4v9.2h-43.7l26.2-40.6h-25.1V40.9z"></path>
</g>
<g class="st2">
	<path class="st3" d="M265.4,15h9.9v29.4c4.3-3.1,8.8-4.7,13.7-4.7c6.3,0,11.5,2.4,15.5,7.2s6,10.9,6,18.4c0,8-2.4,14.4-7.2,19.2   c-4.8,4.8-11.2,7.1-19.2,7.1c-3.2,0-6.6-0.3-10.2-1c-3.6-0.7-6.4-1.6-8.5-2.6V15z M275.2,53.9v27c3.4,1,6.8,1.5,10.4,1.5   c4.4,0,7.9-1.6,10.7-4.7c2.8-3.1,4.1-7.1,4.1-12c0-4.9-1.3-9-3.9-12.1c-2.6-3.1-6-4.7-10.1-4.7C282.8,49,279,50.6,275.2,53.9z"></path>
</g>
<g class="st2">
	<path class="st3" d="M345.9,40.7c7.6,0,13.9,2.4,18.9,7.3c5,4.9,7.5,11,7.5,18.5c0,7.2-2.5,13.2-7.6,17.9   c-5.1,4.8-11.5,7.1-19.2,7.1c-7.5,0-13.7-2.4-18.8-7.2c-5-4.8-7.5-10.8-7.5-18.1c0-7.3,2.5-13.4,7.6-18.2   C331.9,43.2,338.2,40.7,345.9,40.7z M345.4,49.6c-4.7,0-8.6,1.6-11.7,4.7c-3,3.1-4.6,7.1-4.6,11.9c0,4.8,1.6,8.7,4.7,11.7   c3.1,3,7.1,4.5,12,4.5c4.8,0,8.8-1.5,11.9-4.6c3.1-3.1,4.6-7,4.6-11.7c0-4.7-1.6-8.7-4.8-11.8C354.3,51.2,350.2,49.6,345.4,49.6z"></path>
</g>
<g class="st2">
	<path class="st3" d="M380.1,48.8l18.5-18.2v10.3h15.8v8.9h-15.8v24.4c0,5.7,2.4,8.5,7.1,8.5c3.5,0,7.3-1.2,11.2-3.5v9.2   c-3.8,2.1-7.9,3.2-12.4,3.2c-4.5,0-8.3-1.3-11.3-4c-0.9-0.8-1.7-1.7-2.3-2.7c-0.6-1-1.1-2.3-1.5-3.9c-0.4-1.6-0.6-4.7-0.6-9.2V49.7   h-8.7V48.8z"></path>
</g>
</svg>
