<?xml version="1.0" encoding="UTF-8"?>
<svg width="72px" height="28px" viewBox="0 0 72 28" version="1.1" xmlns="http://www.w3.org/2000/svg" xmlns:xlink="http://www.w3.org/1999/xlink">
    <title>F76EC54B-777A-499A-AE30-B03791B822D3</title>
    <g id="0.1_FORD_EU_SPRINT-WIP" stroke="none" stroke-width="1" fill="none" fill-rule="evenodd">
        <g id="HEADER/DESK/F2" transform="translate(-684.000000, -24.000000)" fill="#00095B">
            <g id="Group-2" transform="translate(205.000000, 24.000000)">
                <g id="Ford_Signature_Blue_Print_CMYK_v1" transform="translate(479.000000, 0.000000)">
                    <path d="M59.5302668,19.5345881 C59.5482175,19.641184 59.6830386,19.7442397 59.8148043,19.7930142 C59.8610177,19.8107147 59.8873709,19.8453288 59.8346646,19.9566448 C59.4577002,20.7885647 59.1116721,21.2680495 58.6392253,21.9906201 C58.2049714,22.6581227 57.7157197,23.1793019 57.1229652,23.6796338 C56.230014,24.4415387 54.9887432,25.2707052 53.9624986,24.7133385 C53.5068567,24.469466 53.3097811,23.812977 53.3189474,23.2811776 C53.342627,21.7856886 53.9865602,20.2504719 55.178944,18.7416091 C56.6329496,16.8980117 58.2404909,15.9421889 59.2953801,16.464548 C60.3865527,17.0006742 60.038233,18.3022453 59.5501271,19.3237564 C59.5134619,19.4028183 59.5107884,19.4700799 59.5302668,19.5345881 Z M71.2428986,7.88298953 C71.3215761,7.7409928 71.2386974,7.63636364 71.0637737,7.63636364 C70.1524899,7.63636364 68.9566687,7.63872369 68.00681,7.63872369 C67.7803258,7.63872369 67.6630735,7.66665103 67.5565151,7.88298953 C67.2062858,8.57527275 62.9328767,15.1700571 62.1376994,16.450781 C62.0040241,16.645879 61.8401764,16.6187384 61.8210799,16.3964997 C61.7408747,15.6357749 61.1026705,14.7617673 60.0981959,14.3432506 C59.3324273,14.023463 58.5834636,13.9652483 57.8054732,14.0718441 C56.3999726,14.2661555 55.1480078,15.0300271 54.0472869,15.8910543 C52.3878033,17.189872 50.9567135,18.8737723 49.1089386,20.117522 C48.0998808,20.7944649 46.7188238,21.3848723 45.7945544,20.5033912 C44.9581288,19.7049055 45.0524654,17.9305364 46.3323111,16.5589503 C46.4671323,16.4153802 46.6286884,16.5349564 46.6034811,16.6643661 C46.4827914,17.2854543 46.6313619,17.9022157 47.0881496,18.3348927 C47.6469125,18.8497784 48.445527,18.9087798 49.1295628,18.5646049 C49.9365798,18.152775 50.4105543,17.357436 50.5491947,16.4547144 C50.7630752,15.0548076 49.7165884,13.8193181 48.4069522,13.7205891 C47.3432785,13.6438873 46.3231448,14.024643 45.3293643,14.8699366 C44.8309463,15.2955334 44.5475546,15.6102076 44.1167381,16.2415227 C44.0117075,16.3964997 43.8505333,16.4126268 43.8551164,16.183308 C43.9055311,14.3900584 43.1848302,13.381921 41.7457198,13.3488802 C40.628958,13.3217395 39.4354283,13.9451878 38.5050481,14.7094527 C37.4856782,15.5527796 36.5942548,16.6702663 35.6390491,17.7204914 C35.5198871,17.8495078 35.4160023,17.844001 35.3827744,17.592655 C35.3537478,16.4047599 35.0642452,15.2546258 34.5299259,14.4376529 C34.3412527,14.1532661 33.944046,14.0124494 33.6102397,14.2051873 C33.4559401,14.2917227 32.9185653,14.5458221 32.5286153,14.8699366 C32.3345951,15.0343538 32.259737,15.2719328 32.3445253,15.5771668 C32.8601301,17.3515359 32.7463151,19.3689908 32.0477661,21.0729515 C31.4061245,22.6333421 30.1583609,24.0415091 28.6925155,24.5174539 C27.7269977,24.8329147 26.7221412,24.6787244 26.1011238,23.79685 C25.2478934,22.5798475 25.5923938,20.4632703 26.8638371,18.7054216 C27.9867098,17.1580113 29.6102921,16.1746544 31.230437,15.541766 C31.4210198,15.4662441 31.4599766,15.3399811 31.4061245,15.1732038 C31.3178988,14.8986506 31.1781126,14.5253683 31.1200593,14.3546576 C30.9718707,13.9479412 30.5555676,13.8814663 30.0483652,13.9388943 C28.8716404,14.079711 27.8098764,14.4950809 26.7607161,15.0732948 C24.0154069,16.5876643 22.638551,19.518461 22.0347205,21.0867185 C21.744836,21.8399698 21.495818,22.3100144 21.1746153,22.7265644 C20.7422711,23.2866844 20.1987854,23.79685 19.2050049,24.6952448 C19.1152515,24.7778467 19.0480319,24.9501309 19.1236539,25.1094347 C19.2252471,25.3261665 19.7419978,26.0770578 19.8875129,26.1443194 C20.0498329,26.226528 20.2373603,26.1120653 20.3126004,26.0558173 C21.008094,25.5708257 21.8395545,24.8018407 22.2470733,24.2798748 C22.389533,24.1012972 22.5361939,24.1764257 22.611816,24.4478322 C22.9918358,25.8434122 23.9871441,26.9833195 25.3620903,27.4600509 C27.8801514,28.3344518 30.4921673,27.0686748 32.4629235,24.8651688 C33.7160341,23.4648687 34.1682386,22.5641138 34.6479421,21.9516792 C35.4614519,20.912861 37.0670835,18.5897788 38.9790226,17.0982232 C39.6802451,16.5487234 40.509796,16.1290267 40.9272449,16.4075133 C41.2618152,16.630932 41.3702831,17.1505377 40.8329083,18.1567085 C38.8839221,21.8230561 36.0152497,26.1301591 35.4893328,27.174484 C35.3934685,27.355815 35.477111,27.4982051 35.661201,27.4982051 C36.6813347,27.493485 37.6923021,27.4958451 38.6184811,27.4958451 C38.7731626,27.4879782 38.841528,27.4156031 38.9186777,27.3038938 C40.4146955,24.8919161 41.8228696,22.5967613 43.331873,20.2233312 C43.4162794,20.0836945 43.4941931,20.1918638 43.4976304,20.2532253 C43.5289486,20.8035117 43.6599505,21.5571564 43.9773339,22.0515882 C44.5475546,22.9657168 45.3560994,23.3586662 46.2528698,23.3645663 C46.9663141,23.3728265 47.3268555,23.2615105 48.0960616,22.9657168 C48.722044,22.7265644 49.2246632,22.4126769 49.610412,22.1286834 C49.8353685,21.9678062 49.8750891,22.237246 49.8689783,22.278547 C49.5233321,24.1933394 49.9503293,26.461747 51.7981041,27.4022295 C54.009094,28.525223 56.4381656,26.9471319 57.8364095,25.5224445 C57.9727583,25.3851679 58.1198012,25.3997216 58.1339325,25.695122 C58.1633411,26.239115 58.4020471,26.8849838 58.8393563,27.3361479 C60.0103522,28.5468568 62.3741138,28.0673721 64.745514,26.1765735 C66.2686489,24.9658646 67.8624407,23.2556104 69.3019329,21.4442671 C69.355403,21.374252 69.3947418,21.2613627 69.2920028,21.1476866 C69.0731572,20.9112876 68.7553918,20.6410612 68.5384559,20.4329829 C68.4387723,20.3460541 68.294021,20.3708347 68.2103784,20.4357363 C66.7346029,21.8808775 65.406634,23.5289836 63.4870564,24.8919161 C62.8396859,25.3572406 61.8080943,25.7324896 61.3444319,25.0870141 C61.1641612,24.8364548 61.1844034,24.4891332 61.3627645,24.0340356 C61.9222912,22.5967613 70.7830555,8.70271579 71.2428986,7.88298953 L71.2428986,7.88298953 Z" id="Fill-1"></path>
                    <path d="M29.4114838,9.79577698 C29.449226,9.99127334 29.5281765,10.0288831 29.6194509,10.0124987 C30.0746678,9.92461839 30.5730186,9.56229847 30.8672535,9.14300532 C31.1364554,8.76281145 31.2627761,8.21355977 30.995885,7.99348672 C30.757108,7.79575612 30.3700581,7.85161222 30.0835257,8.0970067 C29.5116161,8.58556141 29.3371549,9.27854947 29.4114838,9.79577698 Z M6.63870176,26.7270775 C3.30737699,26.7499661 0.372345072,24.7588822 0.0357464772,21.3125607 C-0.151809033,19.4030267 0.406621131,17.7009051 1.52425171,16.2989169 C2.51556153,15.049602 4.19354789,14.0114233 5.61427125,13.7582089 C6.07642035,13.6759143 6.69762577,13.728419 6.95411852,14.024084 C7.35695849,14.4768908 7.24103609,14.9747549 6.83896637,15.1736026 C5.7548416,15.7087041 4.45081089,16.6243718 3.80611289,17.8748037 C3.28195879,18.8958533 3.17681987,20.1261771 3.97595269,21.2980381 C5.31425946,23.2511398 9.04303246,23.3043893 12.5106912,20.189853 C13.3691332,19.4276034 14.1378412,18.6951437 14.9188732,17.8275122 C16.4462759,16.1391684 16.9538697,15.5240065 18.9842447,12.8008353 C19.0085076,12.7699283 19.0154398,12.7282224 19.0042712,12.7081142 C18.9877109,12.6738558 18.9592117,12.6638017 18.9002877,12.6600779 C17.5450354,12.6961982 16.3634742,13.0871909 15.2154188,13.9168403 C14.8845971,14.1499464 14.4089686,14.1171775 14.2002313,13.8103413 C13.9683865,13.4636611 14.1343751,13.0112266 14.5164183,12.7561504 C16.3634742,11.5139107 18.3819104,11.2886244 20.4427103,10.9519983 C20.4411698,10.9519983 20.5859765,10.9590734 20.7042097,10.8075172 C21.5499425,9.75779483 22.1888636,8.8108477 23.0904395,7.74883699 C23.9989476,6.67155895 25.1735766,5.68253355 26.070531,4.93964738 C27.3221848,3.89848962 28.1247837,3.54883041 28.9404769,3.11911079 C29.1553762,3.01074995 28.9131331,2.88079142 28.8480471,2.88079142 C24.2924123,2.05300397 19.5576948,0.981683914 15.0332551,2.6015109 C11.9002693,3.73203843 10.5276864,6.13459561 11.1881745,7.73990001 C11.6572559,8.87824739 13.2066107,9.06331728 14.6562184,8.37740434 C15.8608871,7.80655496 16.9750515,6.88716351 17.7653265,5.70338649 C18.2074491,5.04614635 19.1390647,5.52055085 18.6360924,6.66187722 C17.3124204,9.67065931 14.7829243,12.056832 11.7019303,12.1577454 C9.08038951,12.2396677 7.38815355,10.375191 7.39393042,8.07429188 C7.40355852,3.53579732 12.6300797,0.546751058 18.1207962,0.0999022333 C24.7337647,-0.428496502 30.9970404,1.27436989 37.5634089,2.04481174 C42.5939018,2.63390744 47.4171979,2.64619579 52.4734942,1.52274337 C53.0712071,1.39725332 53.4906074,1.76627598 53.452095,2.34978607 C53.4024139,3.19395797 52.7265209,4.00610571 51.0612436,4.8849084 C49.1672025,5.88920113 47.1857383,6.19343071 45.1164657,6.20981516 C40.1121612,6.25040393 35.4510023,4.36432952 30.6273211,3.35072743 C30.6346385,3.5547884 30.6885559,3.79869338 30.5113987,3.92716242 C27.8397918,5.83260028 25.4246776,7.76782806 23.8067706,10.485786 C23.7524681,10.5483449 23.7821227,10.6082971 23.8764781,10.6019667 C25.2806411,10.5300985 26.5438487,10.494723 27.8551967,10.3934373 C28.0839605,10.375191 28.0924333,10.3197072 28.0720217,10.1580969 C27.9572547,9.22083149 28.2395507,8.1528628 29.0918307,7.41816886 C29.963752,6.66187722 31.0563495,6.57585883 31.779998,7.12026964 C32.6037788,7.74064476 32.5306051,8.85627733 32.0803949,9.69262938 C31.6217119,10.5416421 30.8653279,10.9951937 30.1385984,11.2156391 C30.1385984,11.2156391 29.9864743,11.2476633 30.0084264,11.3817179 C30.0373107,11.595833 31.0270801,12.126466 31.1118074,12.2675957 C31.1934537,12.4020228 31.1514752,12.6105522 31.0008916,12.7699283 C30.8953676,12.886109 30.7320749,12.9952146 30.5221822,12.9911185 C30.3515721,12.9877671 30.2483588,12.9311662 30.031919,12.8175922 C29.5874856,12.584486 29.0329067,12.2024303 28.6628023,11.7514853 C28.5360964,11.5991844 28.4721658,11.595833 28.1571342,11.6122175 C26.7383364,11.6915331 24.5257976,11.8982007 23.026894,12.0795468 C22.6637218,12.1231146 22.6105747,12.1886524 22.5354755,12.3104187 C20.1457795,16.1205497 17.5939462,20.2300694 14.7929375,22.9804239 C11.787813,25.9303709 9.2898971,26.7067708 6.63870176,26.7270775 L6.63870176,26.7270775 Z" id="Fill-2"></path>
                </g>
            </g>
        </g>
    </g>
</svg>