<svg xmlns="http://www.w3.org/2000/svg" xmlns:xlink="http://www.w3.org/1999/xlink" viewBox="0 0 132 36.667"><path d="M 56.054 22.384 L 56.054 4.506 L 59.877 4.506 L 59.877 8.464 L 62.343 8.464 L 62.343 12.221 L 59.877 12.221 L 59.877 22.385 C 59.877 23.475 60.247 24.33 61.236 24.33 L 62.326 24.33 L 62.326 28.087 L 60.867 28.087 C 58.317 28.087 56.054 26.327 56.054 22.385 Z" fill="rgb(94,114,236)"></path><path d="M 130.436 13.746 C 127.937 8.933 122.016 7.071 117.202 9.57 C 112.388 12.069 110.527 17.989 113.026 22.803 C 115.525 27.617 121.446 29.478 126.259 26.979 C 131.056 24.48 132.935 18.56 130.436 13.747 Z M 121.731 24.312 C 120.129 24.314 118.593 23.678 117.46 22.545 C 116.327 21.413 115.691 19.876 115.692 18.275 C 115.691 16.673 116.327 15.137 117.46 14.004 C 118.593 12.872 120.129 12.236 121.731 12.237 C 123.333 12.236 124.869 12.872 126.001 14.004 C 127.134 15.137 127.77 16.673 127.769 18.275 C 127.77 19.876 127.134 21.413 126.001 22.545 C 124.869 23.678 123.333 24.314 121.731 24.312 Z" fill="rgb(19,13,111)"></path><path d="M 84.312 13.746 C 81.813 8.933 75.893 7.071 71.08 9.57 C 66.266 12.069 64.404 17.989 66.903 22.803 C 69.402 27.617 75.322 29.478 80.135 26.979 C 84.933 24.48 86.811 18.56 84.312 13.747 Z M 75.607 24.312 C 74.006 24.313 72.47 23.677 71.337 22.545 C 70.205 21.412 69.569 19.876 69.57 18.275 C 69.569 16.673 70.205 15.137 71.337 14.004 C 72.47 12.872 74.006 12.236 75.607 12.237 C 77.209 12.236 78.745 12.872 79.878 14.004 C 81.011 15.137 81.646 16.673 81.645 18.275 C 81.646 19.876 81.011 21.413 79.878 22.545 C 78.745 23.678 77.209 24.314 75.607 24.312 Z" fill="rgb(94,114,236)"></path><path d="M 28.38 13.746 C 25.881 8.933 19.961 7.071 15.147 9.57 C 10.333 12.069 8.472 17.989 10.971 22.803 C 13.47 27.617 19.39 29.478 24.203 26.979 C 29.017 24.48 30.879 18.56 28.38 13.747 Z M 19.675 24.312 C 18.074 24.313 16.538 23.677 15.405 22.545 C 14.273 21.412 13.637 19.876 13.638 18.275 C 13.637 16.673 14.273 15.137 15.405 14.004 C 16.538 12.872 18.074 12.236 19.675 12.237 C 21.277 12.236 22.813 12.872 23.946 14.004 C 25.078 15.137 25.714 16.673 25.713 18.275 C 25.729 21.612 23.03 24.312 19.675 24.312 Z M 51.49 13.73 C 48.991 8.916 43.053 7.038 38.239 9.537 C 37.7 9.817 37.189 10.148 36.713 10.526 L 36.713 0.58 L 32.94 0.58 L 32.94 18.526 C 32.973 20.018 33.352 21.482 34.046 22.803 C 36.545 27.617 42.483 29.495 47.297 26.996 C 52.11 24.48 53.989 18.543 51.49 13.73 Z M 42.768 24.312 C 39.431 24.312 36.714 21.596 36.714 18.258 C 36.714 14.92 39.431 12.203 42.768 12.203 C 46.105 12.203 48.822 14.92 48.822 18.258 C 48.822 21.596 46.105 24.312 42.768 24.312 Z M 4.411 6.366 C 5.514 6.366 6.408 5.472 6.408 4.37 C 6.408 3.267 5.514 2.374 4.411 2.374 C 3.309 2.374 2.415 3.267 2.415 4.37 C 2.415 5.472 3.309 6.366 4.411 6.366 Z M 2.482 30.015 C 2.482 31.189 2.114 32.245 1.107 32.245 L 0 32.245 L 0 36.087 L 1.476 36.087 C 4.059 36.087 6.356 34.225 6.356 30.015 L 6.356 8.429 L 2.499 8.429 L 2.499 30.015 L 2.483 30.015 Z M 103.652 29.998 C 102.476 31.576 100.622 32.503 98.654 32.497 C 96.688 32.496 94.837 31.57 93.656 29.998 L 89.244 29.998 C 90.922 33.671 94.611 36.053 98.654 36.053 C 102.696 36.053 106.385 33.689 108.079 29.999 L 103.652 29.999 Z M 106.72 6.333 C 107.804 6.333 108.682 5.454 108.682 4.371 C 108.682 3.287 107.804 2.409 106.72 2.409 C 105.637 2.409 104.758 3.287 104.758 4.371 C 104.758 5.454 105.637 6.333 106.72 6.333 Z M 107.359 13.746 C 104.86 8.933 98.94 7.071 94.127 9.57 C 89.313 12.069 87.451 17.989 89.95 22.803 C 92.449 27.617 98.369 29.478 103.183 26.979 C 107.98 24.48 109.858 18.56 107.359 13.747 Z M 98.655 24.312 C 97.053 24.314 95.517 23.678 94.384 22.545 C 93.251 21.413 92.616 19.876 92.617 18.275 C 92.616 16.673 93.251 15.137 94.384 14.004 C 95.517 12.872 97.053 12.236 98.655 12.237 C 100.256 12.236 101.793 12.872 102.925 14.004 C 104.058 15.137 104.694 16.673 104.693 18.275 C 104.709 21.612 101.993 24.312 98.655 24.312 Z" fill="rgb(19,13,111)"></path></svg>