<?xml version="1.0" encoding="utf-8"?>
<!-- Generator: Adobe Illustrator 28.0.0, SVG Export Plug-In . SVG Version: 6.00 Build 0)  -->
<svg version="1.1" id="Layer_2_00000036971448947692108000000016558956595697119371_"
	 xmlns="http://www.w3.org/2000/svg" xmlns:xlink="http://www.w3.org/1999/xlink" x="0px" y="0px" viewBox="0 0 202.5 40"
	 style="enable-background:new 0 0 202.5 40;" xml:space="preserve">
<style type="text/css">
	.st0{fill:#F1F1F1;}
</style>
<g id="Layer_1-2">
	<path class="st0" d="M174.1,39.4V9.9h5.3l0.2,4.2c0.3-0.4,0.7-0.8,1-1.1c2.3-2.3,5.5-3.7,9-3.7c0.4,0,0.9,0,1.3,0.1
		c0.2,0,0.4,0,0.5,0.1c2.8,0.4,5.3,1.7,7.2,3.6c0.9,0.9,1.6,1.9,2.2,3c0,0,0,0,0,0c0.9,1.8,1.4,3.9,1.5,6.2c0,0.3,0,0.5,0,0.8v16.4
		h-6.4V23.3l0,0c0-2.1-0.9-4.1-2.3-5.5s-3.4-2.3-5.5-2.3c-4.3,0-7.8,3.5-7.8,7.8v0v16.2L174.1,39.4L174.1,39.4z M110,39.4V23.2v0
		c0-4.3,3.5-7.8,7.8-7.8c2.2,0,4.1,0.9,5.5,2.3s2.3,3.4,2.3,5.5l0,0v16.1h6.3V23.1c0-0.3,0-0.5,0-0.8c-0.1-2.3-0.6-4.4-1.5-6.2
		c0,0,0,0,0,0c-0.6-1.1-1.3-2.1-2.2-2.9c-1.9-1.9-4.4-3.2-7.2-3.6c-0.2,0-0.3-0.1-0.5-0.1c-0.4,0-0.8-0.1-1.3-0.1
		c-3.5,0-6.7,1.4-9,3.7c-0.4,0.4-0.7,0.7-1,1.1L109,9.9h-5.3v29.5L110,39.4L110,39.4z M101.5,22.3c-0.1-2.3-0.6-4.4-1.5-6.2
		c0,0,0,0,0,0c-0.6-1.1-1.3-2.1-2.2-2.9c-1.9-1.9-4.4-3.2-7.2-3.6c-0.2,0-0.3-0.1-0.5-0.1c-0.4,0-0.8-0.1-1.3-0.1
		c-3.5,0-6.7,1.4-9,3.7c-0.4,0.4-0.7,0.7-1,1.1c-0.3,0.4-0.6,0.8-0.9,1.4c-0.5-0.9-1.2-1.7-1.9-2.4c-1.9-1.9-4.4-3.2-7.2-3.6
		c-0.2,0-0.3-0.1-0.5-0.1c-0.4,0-0.8-0.1-1.3-0.1c-3.5,0-6.7,1.4-9,3.7c-0.4,0.4-0.7,0.7-1,1.1l-0.2-4.2h-5.3v29.5h6.4V23.3v0
		c0-4.3,3.5-7.8,7.8-7.8c2.2,0,4.1,0.9,5.5,2.3s2.3,3.4,2.3,5.5l0,0v16.1h6.3V23.1c0,0,0-0.1,0-0.1c0.2-4.1,3.6-7.4,7.8-7.4
		c2.2,0,4.1,0.9,5.5,2.3s2.3,3.4,2.3,5.5l0,0v16.1h6.3V23.1C101.6,22.8,101.6,22.6,101.5,22.3 M42.5,9.9v16.2v0
		c0,4.3-3.5,7.8-7.8,7.8c-2.2,0-4.1-0.9-5.5-2.3c-1.4-1.4-2.3-3.4-2.3-5.5l0,0V9.9h-6.4v16.4c0,0.3,0,0.5,0,0.8
		c0.1,2.3,0.6,4.4,1.5,6.2c0,0,0,0,0,0c0.6,1.1,1.3,2.1,2.2,3c1.9,1.9,4.4,3.2,7.2,3.6c0.2,0,0.3,0,0.5,0.1c0.4,0,0.8,0.1,1.3,0.1
		c3.5,0,6.7-1.4,9-3.7c0.4-0.4,0.7-0.7,1-1.1l0.2,4.2h5.3V9.9L42.5,9.9L42.5,9.9z M6.6,33.1V0H0v39.4h19.7v-6.3H6.6z M133.9,39.4
		h6.4V9.9H134L133.9,39.4L133.9,39.4z M172.6,24.7c0,8.5-6.9,15.3-15.3,15.3c-3.2,0-6.2-1-8.6-2.7c-1.6-1.1-2.9-2.4-4-4
		c-1.7-2.5-2.7-5.4-2.7-8.6c0-8.5,6.9-15.3,15.3-15.3v5.9c-5.2,0-9.5,4.2-9.5,9.5c0,2,0.6,3.8,1.6,5.4c0.7,1,1.5,1.8,2.5,2.5
		c1.5,1,3.4,1.7,5.4,1.7c5.2,0,9.5-4.2,9.5-9.5c0-2-0.6-3.8-1.6-5.3l4.8-3.3C171.6,18.5,172.6,21.5,172.6,24.7"/>
</g>
</svg>
