<?xml version="1.0" encoding="UTF-8"?>
<svg id="Layer_2" data-name="Layer 2" xmlns="http://www.w3.org/2000/svg" viewBox="0 0 695.73 138.51">
  <defs>
    <style>
      .cls-1 {
        fill-rule: evenodd;
      }

      .cls-1, .cls-2 {
        fill: #ee7624;
      }
    </style>
  </defs>
  <g id="Layer_1-2" data-name="Layer 1">
    <g>
      <path class="cls-2" d="M32.7,136.32V49.1l18.31,87.23,32.82-.07,18.16-87.16v87.23h32.67l-.1-134.3h-55.5s-11.72,63.35-11.72,63.35L55.63,2.02H0l.04,134.3h32.67Z"/>
      <path class="cls-1" d="M691.64,44.25c2.02-32.03-28.57-44.25-54.49-44.25s-54.47,9.75-55.77,41.21c0,14.36,6.97,28,19.66,33.85,27.37,12.73,55.88,9.97,55.88,26.26,0,13.5-11.74,15.53-19.72,15.53-12.51,0-21.32-10.97-21.15-23.44h-35.99c0,35.68,27.49,45.11,56.69,45.11s58.99-12.81,58.99-40.78c0-35.88-34.07-39.62-55.18-45.32-9.26-2.57-20.81-4.77-21.22-14.57-.2-5.57,2.71-13.42,15.44-13.42,5.93,0,12.72,2.31,15.62,5.05,3.17,2.8,6.55,9.61,6.37,14.77h34.86Z"/>
      <rect class="cls-2" x="149.25" y="2.21" width="35.88" height="22.73"/>
      <path class="cls-1" d="M284.1,86.24c0,29.08-22.91,28.33-24.06,28.33-15.9,0-25.31-18.26-25.31-44.3,0-21.53,4.86-48.7,26.27-48.7,10.96,0,20.73,8.95,20.28,21.23h35.23C312.58,12.44,291.36.39,256.41.28c-33.47-.1-60.22,27.6-60.22,69.11s26.5,68.32,59.75,68.32c19.76,0,31.29-12.45,31.29-12.45v10.94s23.14.27,30.14,0V55.27h-59.74v24.37h26.47v6.6Z"/>
      <path class="cls-1" d="M511.55,1.01c-39.09,0-62.23,25.32-62.23,68.76s23.13,68.31,62.23,68.31,62.55-25.26,62.55-68.63S550.6,1.01,511.55,1.01ZM511.23,117.39c-22.24,0-25.31-27.64-25.31-47.11,0-20.61,3.39-47.91,25.6-47.91s25.73,27,25.73,47.61-3.8,47.41-26.02,47.41Z"/>
      <rect class="cls-2" x="149.25" y="32.79" width="35.84" height="103.21"/>
      <path class="cls-1" d="M418.73,65.45c12.99,0,23.5-9.3,23.5-29.48,0-28.64-28.61-34.78-50.71-34.78h-60.43v135.01l35.41.04v-57.86l14.34-.11c16.63,0,23.69-.39,23.96,13.9-.28,43.24.45,5.03,0,44.03h35.65v-49.15c-1.44-8.38,1.8-21.61-21.73-21.61ZM381.38,53.88l-14.87.11v-26.53l14.86-.08c11.61,0,24.63-.64,24.63,13.17s-13.02,13.34-24.61,13.34Z"/>
    </g>
  </g>
</svg>