<svg width="3000" height="886" viewBox="0 0 3000 886" fill="none" xmlns="http://www.w3.org/2000/svg">
<path fill-rule="evenodd" clip-rule="evenodd" d="M859.784 810.927C859.588 811.366 859.358 811.88 858.986 812.252C856.308 816.389 853.388 820.284 849.98 824.178C849.858 824.3 849.736 824.483 849.615 824.665C849.493 824.848 849.371 825.03 849.25 825.152C842.434 833.671 834.645 841.217 826.126 848.276C826.004 848.398 825.822 848.519 825.639 848.641C825.457 848.763 825.274 848.884 825.152 849.006C821.258 852.17 817.363 855.091 813.225 857.769C812.982 858.012 812.678 858.195 812.373 858.377C812.069 858.56 811.765 858.742 811.521 858.986C807.627 861.663 803.489 864.097 799.351 866.288C798.986 866.41 798.682 866.592 798.377 866.775C798.073 866.957 797.769 867.14 797.404 867.262C796.546 867.665 795.677 868.08 794.8 868.498C791.449 870.096 787.976 871.753 784.503 873.103L783.043 873.834C778.661 875.781 774.037 877.241 769.412 878.702C769.169 878.702 768.986 878.763 768.803 878.823C768.621 878.884 768.438 878.945 768.195 878.945C763.57 880.162 758.702 881.379 753.834 882.353C753.59 882.596 753.104 882.596 752.86 882.596C747.992 883.57 743.124 884.3 738.012 884.787H737.282C732.414 885.274 727.302 885.517 722.191 885.517C717.079 885.517 712.211 885.274 707.1 884.787H706.369C701.258 884.3 696.39 883.57 691.521 882.596C691.278 882.353 690.791 882.353 690.548 882.353L690.546 882.353C685.678 881.379 680.811 880.406 676.187 878.945C675.943 878.945 675.761 878.884 675.578 878.823C675.396 878.763 675.213 878.702 674.97 878.702C670.345 877.241 665.72 875.537 661.339 873.834L659.878 873.103C655.497 871.4 651.116 869.452 646.978 867.262C646.613 867.14 646.308 866.957 646.004 866.775C645.7 866.592 645.396 866.41 645.031 866.288C643.872 865.607 642.714 864.944 641.56 864.285C638.595 862.589 635.664 860.914 632.86 858.986C632.617 858.742 632.312 858.56 632.008 858.377C631.704 858.195 631.4 858.012 631.156 857.769C627.018 855.091 623.124 852.17 619.229 849.006C619.108 848.884 618.925 848.763 618.743 848.641C618.56 848.519 618.377 848.398 618.256 848.276C614.118 844.868 609.98 841.217 606.085 837.323L50.6289 281.866C-13.6307 217.85 -13.6307 113.671 50.6289 49.4118C114.645 -14.8479 218.824 -14.8479 283.083 49.4118L557.404 324.219V164.544C557.404 73.5091 631.156 0 721.947 0C812.982 0 886.491 73.7525 886.491 164.544V721.217C886.491 726.329 886.248 731.197 885.761 736.308V737.039C885.274 742.15 884.544 747.018 883.57 751.886C883.327 752.13 883.327 752.617 883.327 752.86C882.353 757.728 881.379 762.596 879.919 767.221C879.919 767.465 879.858 767.647 879.797 767.83C879.736 768.012 879.676 768.195 879.676 768.438C878.215 773.063 876.511 777.688 874.807 782.069L874.077 783.529C872.373 787.911 870.426 792.292 868.235 796.43C868.114 796.795 867.931 797.099 867.749 797.404C867.566 797.708 867.383 798.012 867.262 798.377C866.58 799.536 865.918 800.694 865.259 801.847C863.563 804.813 861.887 807.744 859.96 810.548C859.902 810.663 859.845 810.791 859.784 810.927ZM0 721.217C0 630.183 73.7525 556.673 164.544 556.673C255.335 556.673 329.087 630.183 329.087 721.217C329.087 812.252 255.335 885.761 164.544 885.761C73.5091 885.761 0 812.252 0 721.217Z" fill="#3453F6"/>
<path fill-rule="evenodd" clip-rule="evenodd" d="M2504.67 280.892C2504.67 265.801 2510.02 253.144 2520.73 242.434C2531.44 231.724 2544.1 226.369 2559.19 226.369C2574.28 226.369 2586.94 231.724 2597.65 242.434C2608.36 253.144 2613.71 265.801 2613.71 280.892C2613.71 295.984 2608.36 308.641 2597.65 319.351C2586.94 330.061 2574.28 335.416 2559.19 335.416C2544.1 335.416 2531.44 330.061 2520.73 319.351C2510.02 308.641 2504.67 295.984 2504.67 280.892ZM2512.21 376.552H2605.92V680.568H2512.21V376.552ZM1306.37 237.809H1438.78L1627.18 545.477H1628.4V237.809H1726V680.811H1598.46L1405.19 365.598H1403.98V680.811H1306.37V237.809ZM2096.71 680.568H2006.65V639.189H2005.44C2002.03 645.03 1997.89 650.872 1992.54 656.714C1987.42 662.556 1980.85 667.667 1973.55 672.292C1966 676.917 1957.48 680.568 1947.99 683.489C1938.5 686.41 1928.03 687.87 1916.84 687.87C1892.98 687.87 1873.75 684.219 1858.9 676.917C1844.06 669.615 1832.62 659.392 1824.58 646.491C1816.55 633.59 1810.95 618.256 1808.28 600.73C1805.6 583.205 1804.14 564.219 1804.14 543.773V376.065H1897.85V525.03C1897.85 533.793 1898.09 542.799 1898.82 552.292C1899.55 561.785 1901.26 570.304 1904.42 578.337C1907.59 586.369 1912.45 592.698 1918.78 597.809C1925.36 602.921 1934.6 605.355 1946.53 605.355C1958.7 605.355 1968.44 603.164 1975.98 598.783C1983.53 594.402 1989.13 588.56 1993.27 581.258C1997.16 573.955 1999.84 565.68 2001.05 556.43C2002.27 547.181 2003 537.688 2003 527.708V376.308H2096.71V680.568ZM2232.29 376.552H2131.03L2256.63 680.568H2356.19L2476.19 376.552H2381.74L2310.43 582.961H2309.21L2232.29 376.552ZM2675.29 462.961C2666.53 482.677 2662.15 504.584 2662.15 528.682C2662.15 552.779 2666.53 574.686 2675.29 594.402C2684.06 614.118 2695.98 630.913 2711.32 644.787C2726.65 658.661 2744.42 669.371 2765.11 676.917C2785.8 684.463 2807.71 688.114 2831.07 688.114C2854.44 688.114 2876.35 684.463 2897.04 676.917C2917.73 669.615 2935.5 658.661 2950.83 644.787C2966.17 630.913 2978.09 614.118 2986.86 594.402C2995.62 574.686 3000 552.779 3000 528.682C3000 504.341 2995.62 482.677 2986.86 462.961C2978.09 443.245 2966.17 426.45 2950.83 412.576C2935.5 398.702 2917.73 387.992 2897.04 380.446C2876.35 372.901 2854.44 369.249 2831.07 369.249C2807.71 369.249 2785.8 373.144 2765.11 380.446C2744.42 387.749 2726.65 398.702 2711.32 412.576C2695.98 426.694 2684.06 443.245 2675.29 462.961ZM2775.82 584.422C2762.68 570.061 2756.11 551.562 2756.11 528.682C2756.11 505.558 2762.68 487.059 2775.82 472.941C2788.97 458.824 2807.22 451.765 2831.07 451.765C2854.69 451.765 2873.18 458.824 2886.33 472.941C2899.47 487.302 2906.04 505.801 2906.04 528.682C2906.04 551.805 2899.47 570.304 2886.33 584.422C2873.18 598.54 2854.93 605.598 2831.07 605.598C2807.46 605.598 2788.97 598.54 2775.82 584.422Z" fill="#3453F6"/>
</svg>
