<svg width="100" height="21" viewBox="0 0 100 21" fill="none" xmlns="http://www.w3.org/2000/svg">
<g clip-path="url(#clip0_104_301)">
<path d="M11.1699 17.8405C9.89928 16.88 8.33736 16.3965 6.57504 15.9068L6.38393 15.8536C4.69598 15.3848 2.95019 14.9003 1.42339 13.8876C1.03498 13.6307 0.679618 13.3457 0.358351 13.0408C0.299469 12.9844 0.204432 13.0408 0.224059 13.1212C0.33769 13.5722 0.48128 14.0129 0.65276 14.4378C0.809778 14.8314 0.989523 15.2125 1.19096 15.58C2.96155 18.8126 6.36946 21.001 10.2846 21.001C10.7092 21.001 11.1286 20.9749 11.5397 20.9248C11.8341 20.8893 12.1244 20.8413 12.4095 20.7807C12.5562 20.7494 12.7018 20.716 12.8465 20.6794C12.9549 20.6512 13.021 20.5374 12.9911 20.4278C12.738 19.4798 12.0924 18.5422 11.1668 17.8416L11.1699 17.8405Z" fill="black"/>
<path d="M18.0912 17.4323H18.0902C17.9662 17.5722 17.8412 17.71 17.711 17.8437C17.3319 18.2352 16.9239 18.5965 16.488 18.9243C15.9446 19.3347 15.3599 19.6907 14.7411 19.9893C14.6409 20.0373 14.519 19.982 14.488 19.8734C14.1254 18.633 13.3001 17.4553 12.1173 16.5605C10.6277 15.4339 8.84467 14.8784 6.99454 14.3647L6.8024 14.3105C5.23222 13.8751 3.60935 13.4251 2.29123 12.5501C1.21483 11.837 0.0733441 10.5475 0 9.02417V9.02104C0.0909053 8.36535 0.242759 7.72844 0.448328 7.1166C0.522706 6.89838 0.604314 6.68225 0.69212 6.47135C0.797487 6.2145 0.912152 5.96391 1.03715 5.71855C1.0795 5.63502 1.1983 5.63607 1.23755 5.72168C1.57328 6.47135 2.03194 7.16567 2.597 7.7629C3.84591 9.08055 5.47498 9.81873 6.75592 10.3136C7.67943 10.6707 8.62981 10.9756 9.54712 11.2721C11.1049 11.7743 12.5749 12.2484 13.9633 12.9563C16.0169 14.0056 17.491 15.483 18.1428 17.1086C18.1862 17.2183 18.1676 17.3425 18.0912 17.4323Z" fill="black"/>
<path d="M20.6593 11.0435C20.6665 10.9161 20.6283 10.7908 20.557 10.6864C19.8752 9.68925 18.7492 8.8853 17.2069 8.29642C16.302 7.94978 15.3682 7.70964 14.3806 7.45488C13.7701 7.29722 13.1389 7.13434 12.5181 6.94536C10.4283 6.30741 8.96348 5.48153 7.90258 4.34555C6.99766 3.37453 6.45532 2.17591 6.33549 0.988762C6.3262 0.891661 6.22496 0.832147 6.13715 0.871823C5.94398 0.956395 5.75287 1.04828 5.56693 1.14538C5.53801 1.16104 5.50908 1.17566 5.48119 1.19027C5.35 1.26023 5.22087 1.33123 5.09381 1.4064C4.77358 1.59225 4.4647 1.79585 4.16823 2.01616C3.50607 2.50375 2.90382 3.06966 2.37388 3.69925C2.3119 3.77234 2.28814 3.87153 2.3088 3.96445C2.5371 4.96992 3.03088 5.9117 3.73849 6.65823C4.76944 7.74723 6.19397 8.38517 7.31996 8.82056C8.20215 9.16198 9.1298 9.4606 10.0265 9.74877C11.5739 10.2468 13.1741 10.7636 14.675 11.53C16.6832 12.5564 18.2276 13.9648 19.1459 15.5623C19.2007 15.6594 19.3401 15.6563 19.3928 15.5581C19.7192 14.9588 19.9899 14.324 20.1965 13.66C20.337 13.21 20.4485 12.7464 20.5281 12.2724C20.5518 12.1314 20.5725 11.9884 20.5901 11.8453C20.5952 11.8056 20.6004 11.766 20.6045 11.7263C20.6314 11.5008 20.65 11.2732 20.6603 11.0435H20.6593Z" fill="black"/>
<path d="M12.9747 5.41471C13.5625 5.59429 14.1761 5.75195 14.7711 5.90544C15.7587 6.15915 16.7783 6.42227 17.7679 6.80127C18.7296 7.1688 19.5643 7.61672 20.2657 8.14086C20.3256 8.18575 20.4093 8.12937 20.3917 8.05628C19.3019 3.43509 15.1905 0 10.2858 0C9.53165 0 8.79718 0.0814399 8.08853 0.234923C7.97283 0.259981 7.88916 0.364391 7.88916 0.484463C7.89123 1.52543 8.41187 2.56014 9.05337 3.24924C9.91594 4.17327 11.1618 4.86133 12.9747 5.41471Z" fill="black"/>
<path d="M38.2887 10.7396C37.8724 11.5185 37.2205 12.146 36.3332 12.6221C35.4458 13.0982 34.3271 13.3373 32.9759 13.3373H30.2281V19.7314H26.9214V3.09052H32.9759C34.2486 3.09052 35.3322 3.31291 36.2268 3.7577C37.1214 4.20248 37.7939 4.81433 38.2412 5.59218C38.6885 6.37108 38.9126 7.2523 38.9126 8.23689C38.9126 9.12646 38.704 9.9607 38.2887 10.7386V10.7396ZM34.9004 10.0129C35.3425 9.59004 35.5646 8.99386 35.5646 8.22645C35.5646 6.59556 34.6638 5.78012 32.8612 5.78012H30.2291V10.6488H32.8612C33.7775 10.6488 34.4583 10.4368 34.9004 10.0129Z" fill="black"/>
<path d="M42.4963 19.1259C41.488 18.561 40.6967 17.7602 40.1214 16.7244C39.546 15.6887 39.2588 14.4942 39.2588 13.14C39.2588 11.7858 39.5542 10.5914 40.1451 9.55564C40.736 8.51989 41.5428 7.72011 42.5665 7.15421C43.5902 6.5883 44.7317 6.3064 45.992 6.3064C47.2523 6.3064 48.3937 6.58935 49.4175 7.15421C50.4412 7.71906 51.248 8.52093 51.8388 9.55564C52.4297 10.5914 52.7252 11.7858 52.7252 13.14C52.7252 14.4942 52.4215 15.6887 51.8161 16.7244C51.2097 17.7602 50.3906 18.561 49.3596 19.1259C48.3276 19.6907 47.1748 19.9737 45.898 19.9737C44.6212 19.9737 43.5034 19.6907 42.4963 19.1259ZM47.587 16.6169C48.1148 16.3225 48.5353 15.8798 48.8503 15.2909C49.1654 14.702 49.3224 13.9847 49.3224 13.14C49.3224 11.8819 48.996 10.914 48.3421 10.2364C47.6882 9.55981 46.8897 9.22048 45.9434 9.22048C44.9972 9.22048 44.2069 9.55877 43.5685 10.2364C42.9301 10.914 42.6109 11.8808 42.6109 13.14C42.6109 14.3992 42.9219 15.3661 43.5437 16.0437C44.1656 16.7213 44.9497 17.0596 45.8938 17.0596C46.492 17.0596 47.055 16.9124 47.5828 16.6169H47.5839H47.587Z" fill="black"/>
<path d="M57.2601 2.07361H53.9534V19.7314H57.2601V2.07361Z" fill="black"/>
<path d="M59.5895 4.38316C59.2031 4.00937 59.011 3.5437 59.011 2.98511C59.011 2.42651 59.2042 1.96189 59.5895 1.58706C59.9748 1.21327 60.4593 1.02533 61.0419 1.02533C61.6245 1.02533 62.109 1.21222 62.4943 1.58706C62.8796 1.96084 63.0728 2.42756 63.0728 2.98511C63.0728 3.54266 62.8796 4.00833 62.4943 4.38316C62.108 4.75799 61.6245 4.94488 61.0419 4.94488C60.4593 4.94488 59.9748 4.75799 59.5895 4.38316Z" fill="black"/>
<path d="M62.6524 6.5058H59.3457V19.7314H62.6524V6.5058Z" fill="black"/>
<path d="M64.7866 9.51384C65.3103 8.48018 66.021 7.68353 66.9208 7.12703C67.8195 6.57052 68.8246 6.29175 69.9351 6.29175C70.9041 6.29175 71.7522 6.49117 72.4794 6.88897C73.2067 7.28782 73.7893 7.78794 74.2262 8.39352V6.50788H77.5329V19.7335H74.2262V17.7998C73.8037 18.42 73.2211 18.9337 72.4794 19.3388C71.7367 19.745 70.8803 19.9475 69.9113 19.9475C68.8164 19.9475 67.8195 19.6615 66.9218 19.0883C66.0231 18.515 65.3113 17.7079 64.7876 16.6649C64.2638 15.6229 64.0015 14.4253 64.0015 13.0721C64.0015 11.719 64.2638 10.5496 64.7876 9.51489L64.7866 9.51384ZM73.7283 11.0497C73.4133 10.4682 72.9877 10.0223 72.4526 9.71222C71.9164 9.40212 71.3421 9.24551 70.7285 9.24551C70.1148 9.24551 69.5477 9.3969 69.0271 9.69969C68.5075 10.0025 68.086 10.4441 67.7637 11.0257C67.4404 11.6073 67.2792 12.2964 67.2792 13.093C67.2792 13.8897 67.4404 14.5861 67.7637 15.1833C68.086 15.7805 68.5116 16.2389 69.0395 16.5573C69.5674 16.8758 70.1303 17.0345 70.7285 17.0345C71.3266 17.0345 71.9175 16.8789 72.4526 16.5688C72.9877 16.2587 73.4122 15.8119 73.7283 15.2303C74.0434 14.6487 74.2004 13.9523 74.2004 13.14C74.2004 12.3277 74.0434 11.6313 73.7283 11.0497Z" fill="black"/>
<path d="M84.5244 6.91506C85.2113 6.51413 85.9964 6.31366 86.8807 6.31366V9.84899H86.0047C84.9624 9.84899 84.1773 10.0975 83.6484 10.5945C83.1195 11.0915 82.855 11.9581 82.855 13.1912V19.7304H79.6196V6.50577H82.855V8.57309C83.2817 7.86833 83.8374 7.31495 84.5244 6.91402V6.91506Z" fill="black"/>
<path d="M95.7037 19.7314L91.2669 14.0975V19.7314H87.9592V2.07361H91.2669V12.1168L95.6562 6.50582H99.9525L94.1935 13.1421L100 19.7314H95.7037Z" fill="black"/>
</g>
<defs>
<clipPath id="clip0_104_301">
<rect width="100" height="21" fill="white"/>
</clipPath>
</defs>
</svg>
