<?xml version="1.0" encoding="UTF-8"?>
<svg id="Layer_2" data-name="Layer 2" xmlns="http://www.w3.org/2000/svg" viewBox="0 0 908.88 589.59">
  <defs>
    <style>
      .cls-1, .cls-2 {
        fill: #625186;
        stroke-width: 0px;
      }

      .cls-2 {
        fill-rule: evenodd;
      }
    </style>
  </defs>
  <g id="Layer_1-2" data-name="Layer 1">
    <g>
      <g>
        <path class="cls-1" d="m597.8,168.57c0-11.84-9.6-21.45-21.44-21.45s-21.43,9.6-21.43,21.45v64.07c0,11.84,9.6,21.45,21.43,21.45s21.44-9.6,21.44-21.45v-64.07Z"/>
        <path class="cls-2" d="m447.77,0h-64.04c-11.78,0-21.43,9.66-21.43,21.45s9.65,21.45,21.43,21.45h10.58v336.85c0,11.79,9.65,21.45,21.44,21.45s21.43-9.66,21.43-21.45V42.89h10.58c11.78,0,21.44-9.66,21.44-21.45S459.55,0,447.77,0Z"/>
        <path class="cls-2" d="m656.56,179.16c-11.84,0-21.43,9.6-21.43,21.45s9.59,21.45,21.43,21.45,21.44-9.6,21.44-21.45-9.59-21.45-21.44-21.45Z"/>
        <path class="cls-2" d="m302.57,45.61c-26.57,0-48.1,21.54-48.1,48.13s21.53,48.13,48.1,48.13c1.76,0,3.51-.12,5.23-.29v160.39c0,11.79,9.63,21.45,21.44,21.45s21.38-9.6,21.44-21.35V99.25c0-.62-.14-1.22-.2-1.82.1-1.22.2-2.44.2-3.68,0-26.59-21.53-48.13-48.1-48.13Z"/>
        <path class="cls-2" d="m570.82,93.74c0-26.59-21.53-48.13-48.1-48.13s-48.11,21.54-48.11,48.13c0,1.24.1,2.46.2,3.68-.06.62-.2,1.2-.2,1.82v202.8c.06,11.75,9.67,21.35,21.44,21.35s21.43-9.66,21.43-21.45v-160.39c1.72.19,3.47.29,5.23.29,26.57,0,48.1-21.54,48.1-48.13v.02Z"/>
        <path class="cls-1" d="m270.35,168.57c0-11.84-9.6-21.45-21.44-21.45s-21.44,9.6-21.44,21.45v64.07c0,11.84,9.6,21.45,21.44,21.45s21.44-9.6,21.44-21.45v-64.07Z"/>
        <path class="cls-2" d="m168.72,179.16c-11.84,0-21.44,9.6-21.44,21.45s9.59,21.45,21.44,21.45,21.44-9.6,21.44-21.45-9.59-21.45-21.44-21.45Z"/>
      </g>
      <g>
        <path class="cls-1" d="m76.84,501.36c0,6.83-5.59,13.26-11.81,13.26-3.31,0-3.52,0-12.84-4.15-4.56-2.07-8.49-3.1-11.6-3.1-4.97,0-8.08,2.07-8.08,5.38,0,3.93,1.66,4.97,15.95,10.56,13.46,5.39,17.81,7.87,23.2,13.26,4.76,5.18,7.46,11.6,7.46,19.05,0,20.09-16.36,33.97-40.18,33.97-20.71,0-38.94-10.36-38.94-21.95,0-7.04,6.21-13.67,12.63-13.67q3.52,0,15.74,5.38c4.97,2.28,8.91,3.32,12.22,3.32,4.97,0,8.91-3.11,8.91-7.04,0-3.52-2.28-5.38-11.6-8.91-15.12-5.59-19.26-7.66-24.44-11.39-7.25-5.18-10.36-12.02-10.36-21.95,0-18.85,16.78-32.94,39.15-32.94,18.43,0,34.59,9.74,34.59,20.92Z"/>
        <path class="cls-1" d="m125.93,545.06c4.56,12.22,12.22,18.02,24.23,18.02,7.25,0,9.11-.62,25.06-8.49,1.86-.83,4.35-1.45,6.63-1.45,6.21,0,12.22,6.01,12.22,12.43,0,12.43-22.16,24.03-45.57,24.03-32.52,0-55.3-21.95-55.3-53.02s22.16-56.13,52.19-56.13c28.38,0,50.54,22.99,50.54,52.61,0,8.49-3.93,12.02-13.26,12.02h-56.75Zm39.98-20.71c-1.45-5.8-2.49-8.28-4.35-11.19-3.52-4.97-9.32-7.87-15.53-7.87-10.15,0-16.78,5.8-21.13,19.05h41.01Z"/>
        <path class="cls-1" d="m244.2,568.67c0,7.25-.21,9.12-2.07,12.63-2.28,4.56-7.66,7.66-13.05,7.66s-10.98-3.1-13.26-7.66c-1.86-3.52-2.07-5.18-2.07-12.63v-112.88c0-7.25.21-9.11,2.07-12.43,2.28-4.56,7.67-7.66,13.26-7.66s10.77,3.1,13.05,7.46c1.86,3.52,2.07,5.18,2.07,12.63v112.88Z"/>
        <path class="cls-1" d="m308.41,568.67c0,7.25-.21,9.12-2.07,12.63-2.28,4.56-7.66,7.66-13.05,7.66s-10.98-3.1-13.26-7.66c-1.86-3.52-2.07-5.18-2.07-12.63v-58.41h-1.24c-6.63,0-8.49-.41-11.6-1.86-3.93-2.07-6.84-7.04-6.84-12.02s2.9-9.94,6.84-12.01c3.11-1.45,4.76-1.87,11.6-1.87h1.24v-14.08c0-19.05,13.26-31.9,33.14-31.9,11.18,0,17.61,4.97,17.61,13.88,0,7.87-4.56,12.84-11.81,13.25-6.21,0-8.49,2.28-8.49,8.08v10.77h5.39c6.63,0,8.28.41,11.6,1.87,3.94,2.07,6.84,7.04,6.84,12.01s-2.9,9.94-6.84,12.02c-3.31,1.45-4.76,1.86-11.6,1.86h-5.39v58.41Z"/>
        <path class="cls-1" d="m460.85,496.8c3.52-11.8,7.66-15.95,16.16-15.95s15.33,6.83,15.33,14.91c0,2.9-.41,4.76-2.28,10.36l-21.54,61.3c-5.59,15.95-10.98,21.54-20.92,21.54-8.49,0-13.67-4.55-17.61-16.15l-13.05-38.11-10.56,32.73c-5.18,16.16-10.36,21.54-20.09,21.54-8.49,0-14.91-5.59-18.64-16.15l-23.4-66.9c-2.28-6.21-2.49-7.25-2.49-10.57,0-7.87,6.84-14.5,15.12-14.5s12.63,4.14,16.16,15.74l13.46,45.36,14.91-47.01c3.11-9.94,7.67-13.88,15.95-13.88,7.46,0,12.01,4.14,15.12,13.88l14.91,46.81,13.46-44.95Z"/>
        <path class="cls-1" d="m532.53,545.06c4.56,12.22,12.22,18.02,24.23,18.02,7.25,0,9.11-.62,25.06-8.49,1.86-.83,4.35-1.45,6.63-1.45,6.21,0,12.22,6.01,12.22,12.43,0,12.43-22.16,24.03-45.57,24.03-32.52,0-55.3-21.95-55.3-53.02s22.16-56.13,52.19-56.13c28.38,0,50.54,22.99,50.54,52.61,0,8.49-3.93,12.02-13.25,12.02h-56.75Zm39.98-20.71c-1.45-5.8-2.49-8.28-4.35-11.19-3.52-4.97-9.32-7.87-15.53-7.87-10.15,0-16.78,5.8-21.13,19.05h41.01Z"/>
        <path class="cls-1" d="m650.8,568.67c0,7.25-.21,9.12-2.07,12.63-2.28,4.56-7.66,7.66-13.05,7.66s-10.98-3.1-13.26-7.66c-1.86-3.52-2.07-5.18-2.07-12.63v-112.88c0-7.25.21-9.11,2.07-12.43,2.28-4.56,7.67-7.66,13.26-7.66s10.77,3.1,13.05,7.46c1.87,3.52,2.07,5.18,2.07,12.63v112.88Z"/>
        <path class="cls-1" d="m704.23,568.67c0,7.25-.21,9.12-2.07,12.63-2.28,4.56-7.66,7.66-13.05,7.66s-10.97-3.1-13.25-7.66c-1.87-3.52-2.07-5.18-2.07-12.63v-112.88c0-7.25.21-9.11,2.07-12.43,2.28-4.56,7.66-7.66,13.25-7.66s10.77,3.1,13.05,7.46c1.86,3.52,2.07,5.18,2.07,12.63v112.88Z"/>
        <path class="cls-1" d="m754.56,545.06c4.56,12.22,12.22,18.02,24.24,18.02,7.25,0,9.11-.62,25.06-8.49,1.86-.83,4.35-1.45,6.63-1.45,6.21,0,12.22,6.01,12.22,12.43,0,12.43-22.16,24.03-45.57,24.03-32.51,0-55.3-21.95-55.3-53.02s22.16-56.13,52.19-56.13c28.37,0,50.54,22.99,50.54,52.61,0,8.49-3.93,12.02-13.26,12.02h-56.75Zm39.98-20.71c-1.45-5.8-2.49-8.28-4.35-11.19-3.52-4.97-9.32-7.87-15.54-7.87-10.15,0-16.78,5.8-21.12,19.05h41.01Z"/>
        <path class="cls-1" d="m841.98,498.46c0-10.57,6.01-17.4,15.33-17.4,6.83,0,11.8,3.52,15.12,10.77,8.49-8.49,13.88-11.39,20.92-11.39,8.7,0,15.54,7.04,15.54,15.74,0,7.25-3.11,10.15-15.54,13.88-16.57,5.59-21.33,10.15-20.92,20.3v38.32c0,7.25-.21,9.12-2.07,12.63-2.28,4.56-7.66,7.66-13.05,7.66s-10.98-3.1-13.26-7.66c-1.86-3.52-2.07-5.18-2.07-12.63v-70.21Z"/>
      </g>
    </g>
  </g>
</svg>