<svg width="191" height="31" viewBox="0 0 191 31" fill="none" xmlns="http://www.w3.org/2000/svg">
<g clip-path="url(#clip0_2207_4739)">
<path d="M182.09 8.56755C181.383 6.9821 180.226 5.63417 178.76 4.68788C177.293 3.7416 175.581 3.23779 173.83 3.23779C172.079 3.23779 170.367 3.7416 168.9 4.68788C167.434 5.63417 166.277 6.9821 165.57 8.56755L156.938 27.4992C156.779 27.7843 156.683 28.0994 156.656 28.4239C156.629 28.7484 156.672 29.0749 156.782 29.3818C156.892 29.6887 157.067 29.969 157.294 30.2042C157.521 30.4395 157.797 30.6243 158.101 30.7466C158.394 30.8892 158.712 30.9719 159.037 30.9898C159.362 31.0076 159.688 30.9603 159.994 30.8506C160.301 30.7409 160.582 30.5712 160.82 30.3514C161.058 30.1317 161.25 29.8666 161.382 29.572L170.154 10.5022C170.805 9.07423 172.248 8.29118 173.83 8.29118C174.606 8.2828 175.369 8.48432 176.037 8.87398C176.706 9.26364 177.254 9.82663 177.623 10.5022L186.278 29.572C186.467 29.9963 186.777 30.3571 187.169 30.6106C187.562 30.864 188.02 30.9993 188.488 30.9999C188.858 30.9842 189.222 30.8982 189.559 30.7466C190.722 30.2169 191.373 28.6508 190.722 27.4992L182.09 8.56755Z" fill="#F1404B"/>
<path d="M8.88653 25.6797C9.59302 27.2652 10.7499 28.6131 12.2165 29.5594C13.683 30.5057 15.3958 31.0095 17.1464 31.0095C18.897 31.0095 20.6098 30.5057 22.0763 29.5594C23.5428 28.6131 24.6997 27.2652 25.4062 25.6797L34.0383 6.74809C34.1973 6.46303 34.2933 6.14785 34.3202 5.82334C34.347 5.49884 34.3041 5.17238 34.1942 4.86551C34.0842 4.55864 33.9098 4.27833 33.6824 4.04308C33.455 3.80782 33.1798 3.62295 32.875 3.50069C32.5828 3.35811 32.2645 3.2754 31.9392 3.25753C31.6139 3.23965 31.2884 3.28697 30.982 3.39666C30.6757 3.50634 30.3948 3.67613 30.1564 3.89584C29.9179 4.11555 29.7267 4.38066 29.5943 4.67528L20.8226 23.7221C20.1711 25.15 18.7285 25.9331 17.1464 25.9331C16.3707 25.9415 15.6075 25.7399 14.9391 25.3503C14.2707 24.9606 13.7226 24.3976 13.3538 23.7221L4.69845 4.67528C4.51168 4.24922 4.20268 3.88679 3.80975 3.63296C3.41683 3.37912 2.95726 3.24504 2.48807 3.24734C2.11678 3.25248 1.75126 3.339 1.41778 3.50069C0.254427 4.03041 -0.397053 5.5735 0.254427 6.74809L8.88653 25.6797Z" fill="#F1404B"/>
<path d="M96.1165 26.0712H83.9245C80.3879 26.0712 77.526 23.2154 77.526 19.8528V5.71166C77.526 5.05807 77.2637 4.43126 76.7969 3.96911C76.33 3.50695 75.6967 3.24731 75.0364 3.24731C74.3835 3.27021 73.7637 3.5372 73.3017 3.99449C72.8397 4.45177 72.57 5.06537 72.5469 5.71166V19.8528C72.5469 22.8238 73.7102 25.5415 75.8043 27.7525C77.995 29.8183 80.8989 30.9796 83.9245 30.9999H96.1165C96.7768 30.9999 97.41 30.7403 97.8769 30.2781C98.3438 29.816 98.6061 29.1892 98.6061 28.5356C98.6061 27.882 98.3438 27.2552 97.8769 26.793C97.41 26.3309 96.7768 26.0712 96.1165 26.0712Z" fill="#F1404B"/>
<path d="M150.304 26.0712H138.112C134.575 26.0712 131.69 23.2154 131.69 19.8528V5.71166C131.69 5.05807 131.428 4.43126 130.961 3.96911C130.494 3.50695 129.861 3.24731 129.201 3.24731C128.548 3.27021 127.928 3.5372 127.466 3.99449C127.004 4.45177 126.734 5.06537 126.711 5.71166V19.8528C126.711 22.8238 127.898 25.5415 129.992 27.7525C132.182 29.8183 135.086 30.9796 138.112 30.9999H150.304C150.964 30.9999 151.597 30.7403 152.064 30.2781C152.531 29.816 152.793 29.1892 152.793 28.5356C152.793 27.882 152.531 27.2552 152.064 26.793C151.597 26.3309 150.964 26.0712 150.304 26.0712Z" fill="#F1404B"/>
<path d="M120.616 3.24731H96.2318C95.5789 3.27021 94.959 3.5372 94.497 3.99449C94.035 4.45177 93.7653 5.06537 93.7422 5.71166C93.7422 6.03528 93.8066 6.35573 93.9317 6.65472C94.0568 6.95371 94.2402 7.22537 94.4714 7.45421C94.7026 7.68304 94.977 7.86456 95.279 7.98841C95.5811 8.11225 95.9048 8.176 96.2318 8.176H105.934V28.5356C105.957 29.1819 106.227 29.7955 106.689 30.2528C107.151 30.71 107.771 30.977 108.424 30.9999C109.084 30.9999 109.717 30.7403 110.184 30.2781C110.651 29.816 110.913 29.1892 110.913 28.5356V8.176H120.616C120.944 8.18572 121.271 8.12845 121.577 8.00775C121.882 7.88704 122.159 7.70549 122.39 7.47436C122.621 7.24323 122.802 6.96747 122.921 6.66423C123.04 6.36099 123.095 6.03675 123.082 5.71166C123.082 5.06204 122.823 4.43869 122.361 3.9772C121.899 3.5157 121.272 3.25339 120.616 3.24731Z" fill="#F1404B"/>
<path d="M52.0709 0H51.8848C50.5612 0 49.4883 1.06208 49.4883 2.37221V11.0158C49.4883 12.326 50.5612 13.388 51.8848 13.388H52.0709C53.3945 13.388 54.4675 12.326 54.4675 11.0158V2.37221C54.4675 1.06208 53.3945 0 52.0709 0Z" fill="#F1404B"/>
<path d="M67.1722 11.792C66.4784 10.0958 65.4502 8.55334 64.1474 7.25489C63.0581 6.25029 61.8179 5.41897 60.4712 4.79055C60.092 4.61654 59.6746 4.53985 59.2576 4.56754C58.8406 4.59522 58.4373 4.72641 58.0849 4.94898C57.7326 5.17155 57.4425 5.47835 57.2415 5.84109C57.0405 6.20383 56.9349 6.61084 56.9346 7.02458C56.9296 7.48662 57.0584 7.94042 57.3058 8.33225C57.5532 8.72409 57.9089 9.03756 58.3306 9.23557C61.4252 10.6635 63.24 13.4503 63.24 17.1122C63.24 22.6858 59.3079 26.0714 53.0025 26.0714H50.9084C44.6263 26.0714 40.6942 22.6858 40.6942 17.1122C40.6942 13.4503 42.4857 10.6635 45.6035 9.23557C46.0253 9.03756 46.3809 8.72409 46.6283 8.33225C46.8757 7.94042 47.0046 7.48662 46.9995 7.02458C46.9992 6.61084 46.8937 6.20383 46.6927 5.84109C46.4917 5.47835 46.2016 5.17155 45.8492 4.94898C45.4969 4.72641 45.0936 4.59522 44.6766 4.56754C44.2595 4.53985 43.8422 4.61654 43.4629 4.79055C42.1162 5.41897 40.8761 6.25029 39.7867 7.25489C38.4692 8.54138 37.4388 10.087 36.762 11.792C36.0914 13.4883 35.7366 15.2908 35.715 17.1122C35.707 18.9366 36.0628 20.7445 36.762 22.4324C37.398 24.1581 38.4339 25.7121 39.7867 26.9696C42.5322 29.5721 46.3248 31.0001 50.9084 31.0001H53.0025C57.6094 31.0001 61.4019 29.5721 64.1474 26.9696C65.4849 25.6995 66.5184 24.1492 67.1722 22.4324C67.8714 20.7445 68.2272 18.9366 68.2192 17.1122C68.1975 15.2908 67.8428 13.4883 67.1722 11.792Z" fill="#F1404B"/>
</g>
<defs>
<clipPath id="clip0_2207_4739">
<rect width="191" height="31" fill="white"/>
</clipPath>
</defs>
</svg>
